<svg viewBox="0 0 48 48" xmlns="http://www.w3.org/2000/svg" xmlns:xlink="http://www.w3.org/1999/xlink">
  <defs>
    <path d="M3.23300233,6.96342245 L22.2974723,1.83068054 C23.0120874,1.63828416 23.7473655,2.06162609 23.9397619,2.7762412 C23.9788748,2.92151796 23.9932431,3.07234429 23.9822639,3.22239301 L22.1981709,27.6049982 C22.1480696,28.2897149 21.5885633,28.8258011 20.9023311,28.846596 L1.53387145,29.433519 C0.794149437,29.4559349 0.176314655,28.8744433 0.153898837,28.1347213 C0.152069397,28.0743498 0.154323829,28.0139236 0.16064671,27.9538563 L2.24872948,8.11706995 C2.30673662,7.56600211 2.69794263,7.10747698 3.23300233,6.96342245 Z" id="a"/>
    <path d="M3.23300233,7.25932089 L22.2974723,2.12657898 C23.0120874,1.9341826 23.7473655,2.35752453 23.9397619,3.07213964 C23.9788748,3.2174164 23.9932431,3.36824272 23.9822639,3.51829145 L22.1981709,27.9008966 C22.1480696,28.5856133 21.5885633,29.1216996 20.9023311,29.1424945 L1.53387145,29.7294175 C0.794149437,29.7518333 0.176314655,29.1703417 0.153898837,28.4306197 C0.152069397,28.3702482 0.154323829,28.3098221 0.16064671,28.2497547 L2.24872948,8.41296839 C2.30673662,7.86190055 2.69794263,7.40337542 3.23300233,7.25932089 Z" id="c"/>
    <radialGradient cx="50%" cy="14.2331729%" fx="50%" fy="14.2331729%" r="116.666667%" gradientTransform="translate(0.500000,0.142332),scale(1.000000,0.857143),rotate(-90.000000),translate(-0.500000,-0.142332)" id="b">
      <stop stop-color="#FFF" offset="0%"/>
      <stop stop-color="#FFF" stop-opacity="0" offset="100%"/>
    </radialGradient>
  </defs>
  <g fill="none" fill-rule="evenodd">
    <path fill="#7C669B" opacity="0.971512278" d="M4.21648438 6.32410156L26.8 0 25.46 32.16 1.34 32.16z" transform="translate(2.203516, 2.500000) translate(16.080000, 9.675898)"/>
    <path fill="#7B659A" opacity="0.971512278" transform="translate(2.203516, 2.500000) translate(16.080000, 9.675898) translate(13.735000, 32.495000) scale(1, -1) translate(-13.735000, -32.495000)" d="M2.68 32.16L26.13 32.16 25.46 32.83 1.34 32.83z"/>
    <path fill="#A495BA" transform="translate(2.203516, 2.500000) translate(16.080000, 9.675898) translate(26.465000, 16.415000) scale(-1, 1) translate(-26.465000, -16.415000)" d="M25.46 0.67L26.13 0 27.47 32.16 26.8 32.83z"/>
    <path d="M20.1320067,5.32117846 L23.0364026,1.79837585 L23.0364026,1.79837585 L24.5326611,2.34266494 C25.0841824,2.54329004 25.4409784,3.079458 25.4130637,3.66567204 L24.1807738,29.5440239 C24.1467517,30.2584967 23.5575729,30.8202873 22.8422905,30.8202873 L2.81064161,30.8202873 C2.63999748,30.820263 2.47092387,30.7876687 2.31250913,30.7242322 C1.72175476,30.4876671 1.07441691,29.8782424 0.370495605,28.8959583 C0.294666065,28.7901422 0.0694897143,28.3287268 0.140019531,28.2165936 C2.60253397,24.3015184 9.24448379,16.6945321 20.065869,5.39563487 C20.0888129,5.37162853 20.1108824,5.34680055 20.1320067,5.32117846 Z" fill="#FFF" opacity="0.300000012" transform="translate(2.203516, 2.500000) translate(16.080000, 9.675898)"/>
    <g transform="translate(2.203516, 2.500000) translate(16.080000, 9.675898)">
      <use fill="#CAC1D5" xlink:href="#a"/>
      <use fill-opacity="0.6" fill="url(#b)" xlink:href="#a"/>
    </g>
    <text transform="translate(2.203516, 2.500000) translate(16.080000, 9.675898) translate(18.385958, 15.410000) rotate(-86.000000) translate(-18.385958, -15.410000)" font-family="AkkuratPro-Bold, Akkurat Pro" font-size="6.36" font-weight="bold" letter-spacing="0.689000006" fill="#7C669B">
      <tspan x="7.38595802" y="17.41">INTEL</tspan>
    </text>
    <path fill="#7C669B" opacity="0.971512278" d="M3.79648438 6.5L26.7964844 0 25.46 32.4558984 1.34 32.4558984z" transform="translate(2.203516, 2.500000)"/>
    <path fill="#7B659A" opacity="0.971512278" transform="translate(2.203516, 2.500000) translate(13.735000, 32.790898) scale(1, -1) translate(-13.735000, -32.790898)" d="M2.68 32.4558984L26.13 32.4558984 25.46 33.1258984 1.34 33.1258984z"/>
    <path fill="#A495BA" transform="translate(2.203516, 2.500000) translate(26.378242, 16.562949) scale(-1, 1) translate(-26.378242, -16.562949)" d="M25.46 0.5L25.96 0 27.2964844 32.4558984 26.6264844 33.1258984z"/>
    <path d="M20.1320067,5.61707689 L23.0364026,2.09427429 L23.0364026,2.09427429 L24.5326611,2.63856338 C25.0841824,2.83918848 25.4409784,3.37535643 25.4130637,3.96157048 L24.1807738,29.8399223 C24.1467517,30.5543951 23.5575729,31.1161857 22.8422905,31.1161857 L2.81064161,31.1161857 C2.63999748,31.1161614 2.47092387,31.0835671 2.31250913,31.0201306 C1.72175476,30.7835655 1.07441691,30.1741409 0.370495605,29.1918567 C0.294666065,29.0860407 0.0694897143,28.6246252 0.140019531,28.5124921 C2.60253397,24.5974168 9.24448379,16.9904306 20.065869,5.69153331 C20.0888129,5.66752697 20.1108824,5.64269899 20.1320067,5.61707689 Z" fill="#FFF" opacity="0.300000012" transform="translate(2.203516, 2.500000)"/>
    <g transform="translate(2.203516, 2.500000)">
      <use fill="#CAC1D5" xlink:href="#c"/>
      <use fill-opacity="0.6" fill="url(#b)" xlink:href="#c"/>
    </g>
    <text transform="translate(2.203516, 2.500000) translate(18.210862, 15.705898) rotate(-86.000000) translate(-18.210862, -15.705898)" font-family="AkkuratPro-Bold, Akkurat Pro" font-size="6.36" font-weight="bold" letter-spacing="0.689000006" fill="#7C669B">
      <tspan x="9.7108622" y="17.7058984">AMD</tspan>
    </text>
  </g>
</svg>