<?xml version="1.0" encoding="UTF-8"?>
<svg width="500px" height="91px" viewBox="0 0 500 91" version="1.1" xmlns="http://www.w3.org/2000/svg" xmlns:xlink="http://www.w3.org/1999/xlink">
    <title>logos /deloitte</title>
    <g id="deloitte" stroke="none" stroke-width="1" fill="none" fill-rule="evenodd">
        <g id="Deloitte" transform="translate(50.000017, 7.999957)">
            <path d="M17.6831177,36.98336 L17.72736,36.9832533 C17.72736,38.0474667 17.7266133,39.11168 17.7274667,40.1758933 C17.7326933,46.2714667 17.73792,52.3671467 17.7442133,58.4628267 C17.74496,59.1816533 17.74816,59.1824 18.4891733,59.21152 C18.6221867,59.2167467 18.7556267,59.2149214 18.8888533,59.21312 C20.6203733,59.1905067 22.352,59.14336 24.0834133,59.1504 C26.1751467,59.15872 28.2286933,58.9002667 30.2389333,58.3383467 C36.9636267,56.45856 41.65664,52.3706667 43.9162667,45.68 C44.7476267,43.2183467 45.08192,40.67392 45.1637333,38.0772267 C45.2711467,34.66656 44.9089067,31.3288533 43.7969067,28.0994133 C41.0128,20.0142933 34.2384,15.4850133 26.4469333,14.6891733 C23.8093867,14.4197333 21.1778133,14.6023467 18.5450667,14.7418667 C17.6906667,14.7870933 17.6846933,14.8064 17.6843733,15.6597333 C17.6824533,22.7675733 17.6831177,29.87552 17.6831177,36.98336 M24.04032,0.130346667 C27.8789333,0.291093333 31.68096,0.737706667 35.4305067,1.58986667 C40.0305067,2.63541333 44.4032,4.25162667 48.4123733,6.7728 C53.9873067,10.2785067 58.0747733,15.0498133 60.6378667,21.11872 C61.9176533,24.1489067 62.7313067,27.3032533 63.19712,30.5536 C63.6058667,33.40608 63.7954133,36.2760533 63.65504,39.1501867 C63.2119467,48.2258133 60.0641067,56.1488 53.4513067,62.54176 C50.2353067,65.65088 46.4817067,67.94784 42.3607467,69.6565333 C38.00032,71.4644267 33.4385067,72.47936 28.76352,73.0110933 C26.0616533,73.3184 23.34528,73.4105601 20.62624,73.4105601 C14.0696533,73.4105601 7.51317333,73.4105601 0.956586667,73.40832 C0.63776,73.4082133 0.318933333,73.3776 0,73.36128 L0,0.95904 C0.23424,0.9136 0.466666667,0.8464 0.70304,0.82624 C3.24629333,0.60928 5.79264,0.43392 8.34325333,0.331093333 C10.3889067,0.24864 12.4353067,0.18592 14.4813867,0.114453333 C15.3636267,0.138453333 16.2498133,0.253333333 17.12,0 L22.4,0 C22.9313067,0.23744 23.49056,0.124586667 24.04032,0.130346667 M358.425408,40.5084587 C358.445248,39.857152 358.385728,39.2054187 358.245781,38.556672 C357.809515,36.5340587 356.962368,34.7309653 355.406955,33.3206187 C352.581035,30.758272 347.988928,30.8998187 345.113408,32.7167787 C342.540821,34.3423787 341.309035,36.7878187 340.974848,39.7404587 C340.878528,40.5916587 340.898901,40.595072 341.793728,40.5951787 C347.067115,40.5954987 352.340395,40.5965653 357.613675,40.591872 C357.872875,40.5916587 358.143808,40.659712 358.425408,40.5084587 M350.523221,74.3408853 C346.118635,74.0653653 341.875328,73.127552 337.922155,71.1216853 C330.954475,67.586432 326.663701,61.958272 324.936341,54.3594453 C324.319061,51.643712 324.073195,48.8889387 324.189461,46.113472 C324.432128,40.3231787 325.824341,34.8634453 329.062955,29.9730987 C332.554581,24.700672 337.367381,21.274752 343.532181,19.8106453 C348.611755,18.6042453 353.689515,18.7062187 358.698368,20.1780053 C364.226261,21.8023253 368.387648,25.185472 371.177941,30.2262187 C372.980288,33.4820053 373.953941,36.9978453 374.415595,40.6735787 C374.778901,43.5657387 374.820395,46.4605653 374.543168,49.3588053 C374.462208,50.204672 374.312981,51.0452053 374.166741,51.8831787 C374.068608,52.4452053 374.046315,52.441792 373.444821,52.450112 C373.284821,52.452352 373.124821,52.450432 372.964821,52.450432 L342.248555,52.450432 C341.957035,52.450432 341.665621,52.450432 341.324181,52.450432 C341.667755,54.7654187 342.755435,56.5894187 344.532501,58.0041387 C346.505088,59.5744853 348.824981,60.338752 351.271061,60.7241387 C356.555115,61.556672 361.728768,60.964032 366.813995,59.402432 C367.397355,59.2233387 367.976661,59.0310187 368.588821,58.8348587 C368.904981,59.729152 369.034155,60.652672 369.235861,61.5552853 C369.885461,64.461952 370.500928,67.376192 371.129941,70.2874453 C371.275541,70.9612587 371.275328,70.9586987 370.652928,71.200512 C368.070208,72.2041387 365.453781,73.095232 362.719381,73.598912 C360.621355,73.9853653 358.507755,74.236352 356.378795,74.348672 C355.610795,74.346112 354.834368,74.2212053 354.080021,74.4800853 L352.800021,74.4800853 C352.053995,74.2234453 351.283968,74.357952 350.523221,74.3408853 M94.703456,40.5906347 C97.1298027,40.5906347 99.5560427,40.5954347 101.982389,40.5864747 C102.456309,40.584768 103.079243,40.795968 103.369056,40.4905813 C103.735136,40.1048747 103.429536,39.472768 103.343349,38.967168 C102.966816,36.7600213 102.082976,34.800128 100.381216,33.2749013 C97.5787627,30.7631147 92.972256,30.9104213 90.139616,32.7243947 C87.4655893,34.4368213 86.226016,36.9862613 85.9928427,40.0834347 C85.956576,40.5657813 85.9852693,40.5874347 86.5446293,40.5883947 C89.2643093,40.5933013 91.9838827,40.5906347 94.703456,40.5906347 M95.4840427,74.341248 C90.3339627,74.008448 85.448736,72.7669547 81.011936,70.0505813 C75.4798827,66.6637013 71.9374827,61.7798613 70.2539627,55.5465813 C69.0930027,51.248128 68.9640427,46.8824747 69.551776,42.4837547 C70.0934293,38.4309547 71.2990827,34.597248 73.404576,31.0776747 C77.216096,24.7064747 82.7734293,20.812288 90.0965227,19.4883413 C94.4025493,18.709888 98.693536,18.8419413 102.928843,19.952768 C109.596256,21.7014613 114.284896,25.8018347 117.118603,32.048128 C118.449376,34.9814613 119.170549,38.077248 119.522976,41.2694613 C119.786763,43.6592213 119.785909,46.052608 119.662283,48.4475947 C119.600523,49.643648 119.402016,50.8256213 119.187189,52.0038613 C119.129696,52.3192747 118.980256,52.469888 118.647456,52.433088 C118.463029,52.4127147 118.274549,52.429568 118.087989,52.429568 C107.824629,52.429568 97.561376,52.429568 87.298016,52.429568 C87.0076693,52.429568 86.7173227,52.429568 86.3759893,52.429568 C86.5080427,53.6733013 86.929696,54.7483947 87.548576,55.749888 C88.6997227,57.6128213 90.3957227,58.809088 92.385376,59.6301013 C94.705376,60.5874347 97.1438827,60.9635413 99.634016,61.0646613 C104.186443,61.249408 108.600203,60.506368 112.908363,59.066048 C113.656523,58.8159147 113.662283,58.817728 113.835509,59.611008 C114.606816,63.143488 115.375243,66.6767147 116.143776,70.2098347 C116.166389,70.313728 116.165536,70.424448 116.199563,70.5238613 C116.300896,70.8205013 116.253643,70.9970347 115.916363,71.1235413 C113.599029,71.9929813 111.278176,72.8445013 108.851509,73.3730347 C106.426443,73.901248 103.973643,74.2086613 101.499083,74.348608 C100.783883,74.342528 100.060789,74.230208 99.3599893,74.4800213 L97.5999893,74.4800213 C96.907296,74.242688 96.1918827,74.3491413 95.4840427,74.341248 M264.261184,74.3498347 C261.167744,74.065568 258.236331,73.279008 255.642197,71.501088 C252.754944,69.5223147 250.955691,66.753888 249.917611,63.460448 C249.168384,61.0835947 248.811264,58.638048 248.806464,56.149088 C248.792491,48.9051413 248.798784,41.661088 248.797077,34.4170347 C248.796971,34.257248 248.799424,34.0973547 248.796544,33.9376747 C248.785664,33.3415147 248.785024,33.3315947 248.174997,33.329888 C246.335424,33.324768 244.495744,33.3237013 242.656171,33.329888 C241.804331,33.332768 241.942677,33.2497813 241.942571,32.6494613 C241.942144,28.707808 241.941184,24.7662613 241.943531,20.824608 C241.943851,20.161568 241.950891,20.1578347 242.662464,20.1563413 C244.422144,20.1525013 246.181824,20.156768 247.941397,20.1491947 C248.929664,20.144928 248.805611,20.2675947 248.805717,19.320608 C248.806677,15.112608 248.801131,10.9047147 248.797824,6.69682133 C248.797717,6.53703467 248.818091,6.374048 248.793557,6.21799467 C248.727744,5.799328 248.929877,5.65138133 249.317291,5.61351467 C250.324117,5.51495467 251.329237,5.39826133 252.334571,5.28487467 C255.509717,4.92679467 258.684544,4.56498133 261.859904,4.20850133 C263.288597,4.04818133 264.718251,3.89714133 266.144491,3.74215467 C266.292971,4.041568 266.225557,4.339488 266.225771,4.62674133 C266.230571,9.44722133 266.229291,14.2677013 266.229397,19.0881813 C266.229397,19.247968 266.226731,19.4077547 266.229931,19.5675413 C266.241451,20.1326613 266.242197,20.139168 266.788331,20.1445013 C267.481451,20.1512213 268.174677,20.1461013 268.867904,20.1461013 C271.613931,20.1461013 274.360064,20.1440747 277.106197,20.1477013 C277.720491,20.148448 277.731051,20.1575147 277.731477,20.7488747 C277.734784,24.743648 277.734784,28.738528 277.731477,32.733408 C277.731051,33.3152747 277.720384,33.3256213 277.093397,33.3262613 C273.760811,33.3299947 270.428117,33.3253013 267.095424,33.3296747 C266.107051,33.3309547 266.231637,33.2241813 266.231211,34.160928 C266.228224,40.259808 266.230571,46.358688 266.230891,52.4574613 C266.230891,53.663968 266.391637,54.8384747 266.818411,55.9790613 C267.603371,58.0773013 269.165824,59.1968747 271.302784,59.616288 C272.871957,59.9243413 274.437077,59.7597547 275.995157,59.5304213 C277.067051,59.3726613 278.130837,59.160928 279.259157,58.962528 C279.284971,59.6094613 279.326464,60.213408 279.330411,60.817568 C279.354624,64.5192213 279.371157,68.2208747 279.388437,71.922528 C279.392171,72.714848 279.389824,72.7203947 278.616704,72.9089813 C275.662784,73.6293013 272.673344,74.1293547 269.639104,74.339168 C269.247211,74.3329813 268.843051,74.2378347 268.480064,74.4800747 L265.280064,74.4800747 C264.965077,74.243808 264.608491,74.333088 264.261184,74.3498347 M305.403061,74.339904 C302.250528,74.048704 299.278688,73.214144 296.664181,71.361984 C293.782475,69.3204907 292.043168,66.4831573 291.046048,63.1515307 C290.354955,60.8421973 290.037408,58.4735573 290.033568,56.0667307 C290.022155,48.8485973 290.024288,41.630464 290.021195,34.4124373 C290.021088,34.225984 290.001461,34.0369707 290.024928,33.853504 C290.081995,33.4073173 289.863115,33.317824 289.463861,33.3212373 C287.624181,33.3368107 285.784288,33.327424 283.944501,33.3282773 C283.103328,33.3285973 283.197515,33.348224 283.197408,32.6084907 C283.196661,28.7198507 283.196555,24.831104 283.197408,20.9423573 C283.197621,20.0805973 283.130208,20.1569707 283.955488,20.1557973 C285.768608,20.1534507 287.581728,20.1548373 289.394848,20.149504 C290.033675,20.1476907 290.041248,20.1409707 290.040608,19.489024 C290.036661,15.2273707 290.029195,10.9657173 290.022901,6.70417067 C290.022688,6.54427733 290.040395,6.38203733 290.018635,6.22513067 C289.962315,5.81787733 290.135755,5.65115733 290.539061,5.61051733 C292.022795,5.46097067 293.504608,5.291904 294.986421,5.124544 C298.161888,4.76603733 301.336821,4.402624 304.512395,4.044544 C305.359328,3.94907733 306.208715,3.87473067 307.054795,3.77201067 C307.340555,3.737344 307.447861,3.84017067 307.442315,4.11025067 C307.438581,4.29659733 307.442955,4.48315733 307.442955,4.66961067 C307.443061,9.43729067 307.443061,14.2049707 307.443061,18.9726507 C307.443061,19.1058773 307.442528,19.2389973 307.443061,19.372224 C307.447008,20.2414507 307.384501,20.144704 308.210315,20.1452373 C311.569888,20.1473707 314.929568,20.1489707 318.289141,20.1436373 C318.944608,20.1426773 318.921781,20.1477973 318.921461,20.736704 C318.919755,24.7320107 318.922208,28.7272107 318.919008,32.7225173 C318.918475,33.3163307 318.908021,33.325824 318.295648,33.326464 C314.989301,33.3297707 311.682955,33.3279573 308.376715,33.3282773 C308.163381,33.3282773 307.950155,33.3304107 307.736928,33.3330773 C307.540981,33.335424 307.449675,33.441984 307.446795,33.6316373 C307.444448,33.791424 307.443168,33.9512107 307.443168,34.1109973 C307.443168,40.1039573 307.437408,46.0968107 307.448075,52.0897707 C307.450421,53.422144 307.550581,54.7455573 308.045088,56.0105173 C308.856715,58.0862507 310.413088,59.2172373 312.560075,59.6210773 C314.104075,59.911424 315.640501,59.752704 317.174475,59.5416107 C318.254155,59.3931307 319.326581,59.1982507 320.360501,58.9460907 C320.585568,59.1067307 320.508235,59.307584 320.509941,59.4780373 C320.551755,63.605824 320.588981,67.7336107 320.624608,71.8613973 C320.631968,72.7093973 320.627915,72.711744 319.836341,72.907264 C316.857355,73.6433707 313.838368,74.1291307 310.778208,74.348864 C310.379061,74.3268907 309.972768,74.2526507 309.600075,74.480064 L306.560075,74.480064 C306.197195,74.2453973 305.794741,74.3372373 305.403061,74.339904 M171.826944,46.7242133 C171.809984,48.7024533 172.006464,50.6578667 172.473237,52.58 C173.045824,54.9381867 173.981717,57.11504 175.709504,58.8860267 C178.760277,62.0131733 183.666411,62.0943467 186.756011,59.05072 C188.254677,57.5744533 189.176491,55.74928 189.748117,53.75824 C191.000811,49.3949333 191.038571,44.99184 189.986304,40.5856533 C189.513024,38.604 188.714197,36.7656 187.448171,35.13104 C184.359851,31.1440533 178.497131,31.63376 175.762091,34.4949867 C174.693824,35.6125333 173.883584,36.8728 173.308651,38.2905067 C172.212224,40.9942933 171.842411,43.8293867 171.826944,46.7242133 M183.411371,74.33808 C181.930091,74.34128 180.448917,74.34448 178.968704,74.34768 C174.462997,74.05904 170.196651,72.9274133 166.295851,70.61456 C160.286891,67.0517867 156.522517,61.7986667 154.727957,55.0915733 C153.852437,51.8195733 153.579157,48.48112 153.792917,45.1168533 C154.114837,40.0490133 155.444011,35.2712 158.175317,30.93552 C161.180651,26.1648533 165.361131,22.8591467 170.653824,20.9391467 C175.033557,19.3503467 179.569877,18.9311467 184.187157,19.1682667 C187.538411,19.3404267 190.782997,20.0108267 193.880597,21.3336 C198.865237,23.46224 202.632064,26.93712 205.284011,31.6355733 C207.301291,35.2095467 208.472704,39.05872 208.848917,43.1356267 C209.376704,48.8547733 208.706091,54.4061333 206.244331,59.6530667 C203.727851,65.0169067 199.725077,68.9241067 194.397611,71.49488 C190.924651,73.17072 187.250731,74.0738667 183.411371,74.33808 M145.633099,37.3131093 C145.633099,49.0299093 145.634059,60.746816 145.631392,72.463616 C145.631179,73.510656 145.745099,73.3543893 144.748725,73.3553493 C139.417099,73.3604693 134.085579,73.357696 128.754059,73.357696 C128.594059,73.357696 128.433419,73.347456 128.274379,73.3595093 C127.979445,73.381696 127.819232,73.2826027 127.846005,72.958656 C127.861365,72.7734827 127.848352,72.5860693 127.848352,72.399616 C127.848245,48.992576 127.848245,25.585536 127.848245,2.178496 C127.848245,2.071936 127.846859,1.965376 127.848565,1.85892267 C127.857952,1.26308267 127.858165,1.253696 128.460405,1.25348267 C134.005259,1.25092267 139.550005,1.25540267 145.094859,1.24483566 C145.489632,1.24398933 145.702325,1.320576 145.637472,1.763776 C145.610805,1.94628267 145.633099,2.135936 145.633099,2.32238933 C145.633099,13.9859627 145.633099,25.649536 145.633099,37.3131093 M216.919445,46.7461547 C216.919445,38.1971413 216.918165,29.6482347 216.920939,21.0992213 C216.921365,19.994368 216.810539,20.1590613 217.839659,20.1579947 C223.145259,20.152768 228.450752,20.1555413 233.756245,20.1555413 C233.916245,20.1555413 234.077205,20.1672747 234.235925,20.1533013 C234.563605,20.1245013 234.748352,20.227008 234.709525,20.5933013 C234.692779,20.7512747 234.707072,20.9125547 234.707072,21.0723413 C234.707072,38.196928 234.707712,55.3215147 234.705579,72.4459947 C234.705365,73.4578347 234.828565,73.3467947 233.822912,73.347328 C228.464085,73.3504213 223.105152,73.3488213 217.746325,73.3488213 C217.613099,73.3488213 217.478805,73.3381547 217.346645,73.3506347 C217.048405,73.3787947 216.895125,73.2728747 216.917312,72.952128 C216.931925,72.7400747 216.919445,72.526208 216.919445,72.313088 C216.919445,63.790848 216.919445,55.2685013 216.919445,46.7461547 M225.770304,15.064704 C223.025237,15.064704 220.280064,15.0633173 217.534997,15.0657707 C216.882731,15.066304 216.918464,15.0868907 216.918677,14.4681173 C216.920171,10.2882773 216.918271,6.108544 216.920704,1.928704 C216.921024,1.28977067 216.928597,1.28337067 217.572864,1.28315733 C223.063104,1.28145067 228.553237,1.281344 234.043477,1.28337067 C234.697344,1.283584 234.705344,1.29073067 234.705771,1.92369067 C234.708224,6.103424 234.708331,10.283264 234.705557,14.4629973 C234.705131,15.053184 234.695851,15.0623573 234.085611,15.063104 C231.313771,15.0667307 228.542037,15.064704 225.770304,15.064704" id="Combined-Shape" fill="#95A1AC"></path>
            <path d="M388.640043,74.4800427 C388.441003,74.2126293 388.114923,74.2618027 387.849003,74.1895893 C383.314603,72.9578027 380.272789,68.876736 380.509163,64.1908693 C380.759936,59.222976 384.505216,55.6531627 388.787883,54.9553493 C393.336256,54.214336 398.048683,56.8539093 399.664256,61.4390827 C399.805803,61.840896 399.734656,62.2926293 400.000043,62.652736 L400.000043,66.808256 C399.734763,67.1566293 399.783403,67.601536 399.631189,67.9898027 C398.364416,71.2222293 396.073963,73.304256 392.716309,74.220736 C392.476736,74.2861227 392.173909,74.2206293 392.000043,74.4800427 L388.640043,74.4800427 Z" id="Fill-15" fill="#57636C"></path>
        </g>
    </g>
</svg>