<?xml version="1.0" encoding="UTF-8"?>
<svg width="500px" height="91px" viewBox="0 0 500 91" version="1.1" xmlns="http://www.w3.org/2000/svg" xmlns:xlink="http://www.w3.org/1999/xlink">
    <title>logos /lumen</title>
    <g id="lumen" stroke="none" stroke-width="1" fill="none" fill-rule="evenodd">
        <g id="Lumen-logo-R" transform="translate(-0.350294, 10.988808)">
            <path d="M0,5.01863212 L0,61.8590249 C0,65.2965109 2.00311682,66.8590045 5.85935107,66.8590045 L59.5872566,66.8590045 C63.3028664,66.8590045 65.4434827,65.2965109 65.4434827,61.8590249 C65.4434827,58.5746634 63.3028664,56.8590454 59.5872566,56.8590454 L13.4311951,56.8590454 C11.5749527,56.8590454 10.8593306,56.0027989 10.8593306,54.2871809 L10.8593306,5.01863212 C10.8644867,3.6149328 10.2793526,2.27371577 9.24690045,1.32269479 C8.2144483,0.371673811 6.82978057,-0.101549495 5.43122781,0.0186525394 C4.03829553,-0.0767430132 2.667427,0.404870797 1.64023007,1.35050663 C0.613033142,2.29614247 0.0199070204,3.62257897 0,5.01863212 M92.3089979,41.9434813 L92.3089979,5.01863212 C92.0835188,2.18705087 89.7198771,0.00414424626 86.8793326,0.00414424626 C84.0387881,0.00414424626 81.6751464,2.18705087 81.4496673,5.01863212 L81.4496673,42.9434772 C81.4496673,65.9496332 95.7371089,68.5683725 120.458883,68.5683725 C145.180657,68.5683725 159.468099,65.9433833 159.468099,42.9434772 L159.468099,5.01863212 C159.242619,2.18705087 156.878978,0.00414424626 154.038433,0.00414424626 C151.197889,0.00414424626 148.834247,2.18705087 148.608768,5.01863212 L148.608768,41.9434813 C148.608768,60.6621548 138.608809,58.1434151 120.458883,58.1434151 C102.308957,58.1434151 92.3089979,60.374656 92.3089979,41.9434813 M265.348916,16.7373342 L265.348916,62.7277714 C265.34376,64.1314707 265.928894,65.4726877 266.961346,66.4237087 C267.993798,67.3747297 269.378466,67.847953 270.777019,67.727751 C272.181612,67.8732019 273.581069,67.4087426 274.619971,66.4523317 C275.658872,65.4959209 276.237262,64.1395773 276.208247,62.7277714 L276.208247,7.4467472 C276.315499,5.54126199 275.643903,3.67398287 274.347546,2.27332775 C273.051189,0.87267263 271.241352,0.0588766512 269.333275,0.0186525394 C265.58329,0.0186525394 263.948922,2.14051887 260.333312,5.44675537 L232.61155,32.7966436 L232.4678,32.7966436 L204.746039,5.59050478 C201.192928,1.93114473 198.496064,0.0186525394 195.314822,0.0186525394 C191.436608,0.363729226 188.429371,3.55489031 188.314822,7.4467472 L188.314822,62.7277714 C188.3097,64.1314707 188.894834,65.4726877 189.927286,66.4237087 C190.959738,67.3747297 192.344406,67.847953 193.742959,67.727751 C195.147552,67.8732019 196.547009,67.4087426 197.58591,66.4523317 C198.624811,65.4959209 199.203201,64.1395773 199.174186,62.7277714 L199.174186,16.5935848 L199.746059,16.5935848 L226.180326,41.6559825 C228.558441,43.9872229 230.408434,45.7997155 232.324051,45.7997155 C234.730291,45.7997155 235.964661,43.9247232 238.611525,41.6559825 L264.905168,16.7373342 L265.348916,16.7373342 Z M305.348753,29.0935338 L305.348753,61.8590249 C305.348753,65.2965109 307.348753,66.8590045 311.208104,66.8590045 L366.07663,66.8590045 C369.792239,66.8590045 371.792231,65.2965109 371.792231,61.8590249 C371.792231,58.5715384 369.792239,56.8590454 366.07663,56.8590454 L318.786198,56.8590454 C316.929955,56.8590454 316.214333,55.9996739 316.214333,54.2871809 L316.214333,39.2278674 L351.936062,39.2278674 C355.795422,39.2278674 357.795413,37.5122494 357.795413,34.2278878 C357.795413,31.1029006 355.795422,29.2279082 351.936062,29.2279082 L305.348753,29.0935338 Z M475.254309,61.2871523 L475.254309,5.01863212 C475.235253,3.62285963 474.642826,2.29639575 473.616116,1.35066354 C472.589405,0.404931323 471.218843,-0.0767697698 469.826206,0.0186525394 C468.427138,-0.102478248 467.041623,0.370327245 466.008462,1.32145376 C464.975301,2.27258028 464.389744,3.61434002 464.394978,5.01863212 L464.394978,50.571571 L410.660823,5.44675537 C406.963963,2.34364304 404.904596,0.0186525394 401.37336,0.0186525394 C397.498376,0.0186525394 394.945262,2.59051703 394.945262,7.4467472 L394.945262,62.7277714 C394.964317,64.1235439 395.556744,65.4500077 396.583455,66.39574 C397.610165,67.3414722 398.980727,67.8231733 400.373365,67.727751 C401.772432,67.8488817 403.157947,67.3760763 404.191108,66.4249497 C405.22427,65.4738232 405.809826,64.1320635 405.804592,62.7277714 L405.804592,16.1654616 L458.960625,61.8590249 C462.519986,64.8840126 464.988726,67.718376 468.676211,67.718376 C470.411285,67.7775238 472.094854,67.1233465 473.334787,65.9082126 C474.574719,64.6930787 475.262771,63.0230679 475.238684,61.2871523 M482.826153,9.13111532 L482.826153,9.08111552 C482.758544,5.97525225 484.373647,3.07503763 487.049643,1.49706312 C489.725639,-0.080911385 493.045234,-0.0905771754 495.730374,1.47178711 C498.415513,3.03415139 500.047479,5.9249114 499.997958,9.03111573 L499.997958,9.08111552 C500.065567,12.1869788 498.450463,15.0871934 495.774467,16.6651679 C493.098471,18.2431424 489.778876,18.2528082 487.093737,16.6904439 C484.408597,15.1280796 482.776632,12.2373196 482.826153,9.13111532 L482.826153,9.13111532 Z M499.010462,9.08111552 L499.010462,9.03111573 C499.056462,6.28004064 497.611933,3.71894513 495.233762,2.33517003 C492.855591,0.951394938 489.91522,0.961069199 487.546206,2.36046324 C485.177192,3.75985729 483.749547,6.33040269 483.813649,9.08111552 L483.813649,9.13111532 C483.767649,11.8821904 485.212178,14.4432859 487.590349,15.827061 C489.96852,17.2108361 492.90889,17.2011618 495.277904,15.8017678 C497.646918,14.4023738 499.074563,11.8318284 499.010462,9.08111552 L499.010462,9.08111552 Z M488.057381,4.54363406 L492.00424,4.54363406 C493.929232,4.54363406 495.360477,5.48113023 495.360477,7.30612277 C495.41031,8.56407947 494.561061,9.6806853 493.335485,9.9686119 L495.65735,13.2748484 L493.632359,13.2748484 L491.560492,10.2654857 L489.723,10.2654857 L489.723,13.2748484 L488.044881,13.2748484 L488.057381,4.54363406 Z M491.857366,8.88424133 C492.991736,8.88424133 493.632359,8.29361874 493.632359,7.45299717 C493.632359,6.515501 493.007361,6.02175302 491.857366,6.02175302 L489.723,6.02175302 L489.723,8.88424133 L491.857366,8.88424133 Z" id="Combined-Shape" fill="#95A1AC"></path>
            <path d="M371.373483,6.01862803 C371.373483,2.73426645 369.373491,0.874899042 365.514132,0.874899042 L311.214354,0.874899042 C307.358128,0.874899042 305.358128,2.74989138 305.358128,6.01862803 L305.358128,10.9998577 L365.670381,10.8779832 C369.385991,10.8779832 371.385983,9.16236519 371.385983,6.01862803" id="Path_1130" fill="#57636C"></path>
        </g>
    </g>
</svg>