<?xml version="1.0" encoding="UTF-8"?>
<svg width="500px" height="91px" viewBox="0 0 500 91" version="1.1" xmlns="http://www.w3.org/2000/svg" xmlns:xlink="http://www.w3.org/1999/xlink">
    <title>logos /reckitt</title>
    <defs>
        <path d="M209.961476,88.3038934 L225.137405,88.3038934 L225.137405,28.3089441 L210.128245,28.3089441 L209.961476,88.3038934 Z M14.9257761,36.8975192 L14.9257761,36.8975192 L14.9257761,28.267252 L0,28.267252 L0,88.3038934 L14.9674682,88.3038934 L14.9674682,59.7864887 C14.9674682,51.4480663 15.8013105,48.5713106 18.1777609,45.6945548 C20.323951,43.0924782 23.5627471,41.6427314 26.9331044,41.7754963 C29.0141088,41.7116311 31.082097,42.1252287 32.9784606,42.9845675 L40.3162724,29.4763232 C37.0837353,27.7105283 33.4512939,26.8060073 29.768168,26.8497202 C23.1522733,26.5805635 17.1335228,30.6550547 14.9257761,36.8975192 M64.9563106,39.3990459 C72.5025829,39.3990459 76.1297966,45.9030154 76.1297966,53.2408271 L52.3652928,53.2408271 C53.6577482,44.0268703 58.3689569,39.3990459 64.8729264,39.3990459 M37.1476719,58.5774175 C37.1476719,78.4645549 48.5713106,89.7631173 68.458448,89.7631173 C75.6281835,89.9119655 82.743536,88.488895 89.304504,85.5939061 L84.1763743,73.0862725 C79.5991309,75.371929 74.5320819,76.5027112 69.4173666,76.3799493 C59.6197203,76.3799493 54.1580536,72.2107381 52.7405218,64.1641605 L90.6803437,64.1641605 C90.9304964,61.4124811 91.0138806,58.785878 91.0138806,55.8257381 C91.0138806,40.6915014 84.8017559,26.9747965 66.207074,26.9747965 C46.5283971,26.9747965 37.4395166,42.5259543 37.4395166,58.7024938 M96.4338552,58.7024938 C96.4338552,78.5479391 108.56626,89.8881936 126.827405,89.8881936 C132.955257,89.9965641 139.027875,88.7136167 144.588245,86.1359035 L139.501807,73.2113488 C135.795304,75.3539896 131.565419,76.4222883 127.286018,76.2965651 C117.780217,76.2965651 111.276247,70.4179773 111.276247,58.2855727 C111.276247,47.1120866 117.113143,40.2745803 127.411094,40.2745803 C131.651999,40.1868878 135.835155,41.2687384 139.501807,43.4014887 L144.713321,30.6437024 C138.952716,27.9976852 132.664575,26.7001322 126.3271,26.8497202 C107.732418,26.8497202 96.1837025,39.7325828 96.1837025,58.5774175 M275.709937,17.4273028 L275.709937,28.3089441 L255.155726,28.3089441 L255.155726,6.9208906 L240.22995,17.3439186 L240.22995,28.267252 L230.974301,28.267252 L230.974301,40.7748856 L240.22995,40.7748856 L240.22995,70.2095167 C239.411982,75.5716741 241.193905,81.0031275 245.029384,84.8386067 C248.864863,88.674086 254.296317,90.4560084 259.658474,89.6380409 C264.25898,89.6754004 268.812168,88.7078478 272.99995,86.8029773 L267.955204,74.2953437 C266.009362,75.4458878 263.795035,76.0641739 261.534619,76.0881045 C257.073563,76.0881045 255.155726,73.669962 255.155726,69.3756745 L255.155726,40.941654 L275.709937,40.941654 L275.709937,70.3762852 C274.89197,75.7384425 276.673892,81.1698959 280.509371,85.0053752 C284.344851,88.8408544 289.776304,90.6227768 295.138461,89.8048094 C299.753275,89.8509658 304.321926,88.8831519 308.521629,86.9697458 L303.518576,74.4621122 C301.570435,75.6072567 299.357576,76.225133 297.097991,76.254873 C292.636935,76.254873 290.719097,73.8367305 290.719097,69.3756745 L290.719097,40.941654 L306.437024,40.941654 L306.437024,28.4340204 L290.635713,28.4340204 L290.635713,6.9208906 L275.709937,17.4273028 Z M208.085331,12.1740967 C208.108333,17.3494386 212.318357,21.5284062 217.493728,21.5131307 C222.669098,21.4977713 226.854312,17.2939563 226.846689,12.118569 C226.839046,6.94318162 222.64145,2.7516794 217.466057,2.7516794 C212.285225,2.7516794 208.085331,6.95157313 208.085331,12.1324046 M150.925446,10.5897965 L150.925446,88.3038934 L166.01799,88.3038934 L166.01799,60.2451019 L185.071285,88.3038934 L203.957812,88.3038934 L180.276693,54.9502037 L204.291349,28.3089441 L184.904517,28.3089441 L166.01799,50.2806872 L166.01799,0 L150.925446,10.5897965 Z" id="path-1"></path>
    </defs>
    <g id="reckitt" stroke="none" stroke-width="1" fill="none" fill-rule="evenodd">
        <g id="Clipped" transform="translate(95.649706, -0.032258)">
            <mask id="mask-2" fill="white">
                <use xlink:href="#path-1"></use>
            </mask>
            <use id="Shape" fill="#95A1AC" xlink:href="#path-1"></use>
        </g>
    </g>
</svg>