<?xml version="1.0" encoding="UTF-8"?>
<svg width="500px" height="91px" viewBox="0 0 500 91" version="1.1" xmlns="http://www.w3.org/2000/svg" xmlns:xlink="http://www.w3.org/1999/xlink">
    <title>logos /sparkCharge</title>
    <g id="sparkCharge" stroke="none" stroke-width="1" fill="none" fill-rule="evenodd">
        <g id="sparkChargeLogo" transform="translate(34.000000, 1.000000)">
            <path d="M79.698361,89.0127346 C77.3641977,90.4028006 75.0517678,90.2784857 72.7245591,88.9318865 C65.4737293,84.7382165 52.7100715,76.5038795 34.4335859,64.2288754 L39.7367896,64.2288754 C47.4443099,64.2566941 53.2242257,64.2309038 57.0765369,64.1515046 C58.5184732,64.1219472 59.8583699,64.1477375 61.0962271,64.2288754 L76.5105112,73.0952186 L90.4433363,82.5753121 C86.8616779,84.7216992 83.2852355,86.8759102 79.698361,89.0127346 Z" id="Fill-1" fill="#424E5A"></path>
            <path d="M113.297273,20.5131696 C114.640684,21.2602178 115.609992,23.0811839 116.205197,25.976068 L115.976562,51.3702001 L100.627591,58.9290641 L100.607596,30.7956588 L100.869266,13.7227973 C106.404609,16.7208424 110.547278,18.9842999 113.297273,20.5131696 Z M27.3128685,41.8133444 C34.9699674,41.8133444 42.6261969,41.8237764 50.2832958,41.8063897 C52.4540242,41.8011737 54.6447473,42.046326 54.6491005,44.7734286 C54.6534407,47.4935764 52.4861896,47.7535075 50.3006825,47.7509186 C34.9873541,47.7326434 19.6731563,47.7343821 4.35982793,47.7500301 C2.18649151,47.7517688 0.0131550909,47.5300885 5.72812714e-05,44.7899459 C-0.0129249461,42.033286 2.18301417,41.8063897 4.34244124,41.8089977 C11.9995401,41.820299 19.6557696,41.8133444 27.3128685,41.8133444" id="Combined-Shape" fill="#7C8791"></path>
            <path d="M100.607596,30.7956588 L74.8587755,17.0601727 L60.5686539,8.60850201 C66.3236487,5.13637975 70.6378664,2.5289556 73.5113069,0.786229573 C75.2351974,-0.260449247 77.1538188,-0.25349457 78.9029199,0.755802863 C83.8117624,3.59041311 91.1338777,7.91274458 100.869266,13.7227973 L100.607596,30.7956588 Z M36.4251465,37.1547543 C31.2317418,37.1547543 26.0392064,37.1582316 20.8458017,37.1538849 C18.6220439,37.1512769 16.5921477,36.5827321 16.6669105,33.932131 C16.7373266,31.4293168 18.8037348,31.2285005 20.791903,31.2302392 C31.1778431,31.2363245 41.5646525,31.2424099 51.9505926,31.2267461 C54.1952144,31.2232845 56.2720547,31.793568 56.1703426,34.3859237 C56.0799318,36.696615 54.0552516,37.169533 52.0044913,37.161709 C46.8110866,37.1408449 41.6185512,37.1547543 36.4251465,37.1547543" id="Combined-Shape" fill="#95A1AC"></path>
            <path d="M115.976736,51.3704609 C116.097283,56.9504297 116.160282,61.1354063 116.165732,63.9253907 C116.170597,66.5785998 115.032638,68.6563094 112.668918,69.993346 C105.25871,74.1844079 97.85111,78.3806859 90.4435102,82.5752252 C81.1549601,76.2557424 76.510685,73.096001 76.510685,73.096001 L100.627765,58.9293249 L115.976736,51.3704609 Z M44.766064,58.9666194 C41.7303477,58.9718354 38.6946313,58.9935688 35.6597844,58.9640114 C33.6898722,58.944886 32.1441954,58.1198875 32.1345965,55.9917565 C32.1259394,53.8331988 33.6820482,53.0716617 35.664131,53.0716617 C41.8798732,53.0707923 48.0956154,53.0690537 54.3104882,53.0820937 C56.1247894,53.0864404 57.500946,53.8531935 57.6026582,55.7787695 C57.716541,57.9381966 56.292571,58.897942 54.3052722,58.942278 C51.126985,59.0135634 47.9460898,58.9614034 44.766064,58.9666194 M20.3847067,53.0727049 C21.3913961,53.0779209 22.3980855,53.0596649 23.4039056,53.0813982 C25.2434176,53.1213876 26.5248167,54.0324502 26.6056648,55.8754395 C26.6873823,57.7358155 25.4285858,58.7798863 23.6342793,58.9085478 C21.7739033,59.0424254 19.8987487,58.9589692 18.0296793,58.9737479 C15.8972016,58.9902653 14.1333218,58.1948242 14.1906979,55.8867409 C14.2498126,53.5204122 16.14757,52.9805554 18.2278876,53.0631422 C18.945958,53.0918302 19.665767,53.0674889 20.3847067,53.0727049" id="Combined-Shape" fill="#57636C"></path>
            <path d="M74.8586016,17.0599119 L60.4458065,25.341193 L32.1345965,25.341193 L60.56848,8.60824121 C63.8180526,10.3619788 68.5814265,13.1792024 74.8586016,17.0599119 Z" id="Fill-13" fill="#ADBECD"></path>
            <path d="M141.858067,63.4285714 C139.908802,63.4285714 138.206532,63.1214953 136.751258,62.5073431 C135.295985,61.8931909 134.174489,61.0186916 133.386772,59.8838451 C132.599055,58.7489987 132.205197,57.4339119 132.205197,55.9385848 L132.205197,54.8170895 C132.205197,54.4699599 132.378762,54.2963952 132.725891,54.2963952 L134.448188,54.2963952 C134.795317,54.2963952 134.968882,54.4699599 134.968882,54.8170895 L134.968882,55.7783712 C134.968882,57.3004005 135.609736,58.5420561 136.891445,59.5033378 C138.173154,60.4646195 139.895451,60.9452603 142.058334,60.9452603 C144.114409,60.9452603 145.676492,60.5113485 146.744583,59.6435247 C147.812674,58.7757009 148.346719,57.6208278 148.346719,56.1789052 C148.346719,55.2443258 148.099723,54.4432577 147.605731,53.7757009 C147.111739,53.1081442 146.3574,52.4806409 145.342714,51.8931909 C144.328027,51.305741 142.872754,50.6248331 140.976892,49.8504673 C138.974222,49.0493992 137.418815,48.3484646 136.310671,47.7476636 C135.202527,47.1468625 134.308001,46.3724967 133.627093,45.4245661 C132.946185,44.4766355 132.605731,43.2817089 132.605731,41.8397864 C132.605731,39.5967957 133.386772,37.8544726 134.948855,36.6128171 C136.510938,35.3711615 138.667146,34.7503338 141.41748,34.7503338 C144.35473,34.7503338 146.677827,35.4445928 148.386772,36.8331108 C150.095718,38.2216288 150.95019,40.0640854 150.95019,42.3604806 L150.95019,43.1214953 C150.95019,43.4686248 150.776625,43.6421896 150.429496,43.6421896 L148.667146,43.6421896 C148.320017,43.6421896 148.146452,43.4686248 148.146452,43.1214953 L148.146452,42.5206943 C148.146452,40.9719626 147.545651,39.7036048 146.344049,38.7156208 C145.142447,37.7276368 143.446852,37.2336449 141.257266,37.2336449 C139.361405,37.2336449 137.912807,37.6208278 136.911472,38.3951936 C135.910137,39.1695594 135.409469,40.2910547 135.409469,41.7596796 C135.409469,42.7209613 135.656465,43.5153538 136.150457,44.1428571 C136.644449,44.7703605 137.352059,45.317757 138.273288,45.7850467 C139.194516,46.2523364 140.603061,46.8598131 142.498922,47.6074766 C144.448188,48.4085447 146.023621,49.1562083 147.225224,49.8504673 C148.426826,50.5447263 149.388107,51.3925234 150.109069,52.3938585 C150.83003,53.3951936 151.190511,54.6168224 151.190511,56.058745 C151.190511,58.2750334 150.369416,60.0574099 148.727226,61.4058745 C147.085037,62.7543391 144.795317,63.4285714 141.858067,63.4285714 Z M169.209015,35.0307076 C171.558815,35.0307076 173.448001,35.7516689 174.876572,37.1935915 C176.305143,38.635514 177.019429,40.5313752 177.019429,42.8811749 C177.019429,45.2042724 176.291792,47.0734312 174.836519,48.4886515 C173.381245,49.9038718 171.465357,50.611482 169.088855,50.611482 L161.318495,50.611482 C161.184983,50.611482 161.118228,50.6782377 161.118228,50.811749 L161.118228,62.5874499 C161.118228,62.9345794 160.944663,63.1081442 160.597533,63.1081442 L158.79513,63.1081442 C158.448001,63.1081442 158.274436,62.9345794 158.274436,62.5874499 L158.274436,35.5514019 C158.274436,35.2042724 158.448001,35.0307076 158.79513,35.0307076 L169.209015,35.0307076 Z M168.888588,48.2483311 C170.464022,48.2483311 171.745731,47.7610147 172.733715,46.7863818 C173.721699,45.811749 174.215691,44.5233645 174.215691,42.9212283 C174.215691,41.2923899 173.721699,39.9839786 172.733715,38.9959947 C171.745731,38.0080107 170.464022,37.5140187 168.888588,37.5140187 L161.318495,37.5140187 C161.184983,37.5140187 161.118228,37.5807744 161.118228,37.7142857 L161.118228,48.0480641 C161.118228,48.1815754 161.184983,48.2483311 161.318495,48.2483311 L168.888588,48.2483311 Z M199.443808,63.1081442 C199.150083,63.1081442 198.963167,62.9612817 198.883061,62.6675567 L197.280925,57.7810414 C197.22752,57.6742323 197.160764,57.6208278 197.080657,57.6208278 L185.144743,57.6208278 C185.064636,57.6208278 184.99788,57.6742323 184.944476,57.7810414 L183.382393,62.6675567 C183.302286,62.9612817 183.11537,63.1081442 182.821645,63.1081442 L180.899082,63.1081442 C180.712166,63.1081442 180.578655,63.0547397 180.498548,62.9479306 C180.418441,62.8411215 180.40509,62.694259 180.458495,62.5073431 L189.270244,35.5113485 C189.35035,35.2176235 189.537266,35.070761 189.830991,35.070761 L192.394409,35.070761 C192.688134,35.070761 192.87505,35.2176235 192.955157,35.5113485 L201.806959,62.5073431 C201.833661,62.5607477 201.847013,62.6275033 201.847013,62.7076101 C201.847013,62.8144192 201.800284,62.9078772 201.706826,62.987984 C201.613368,63.0680908 201.499883,63.1081442 201.366372,63.1081442 L199.443808,63.1081442 Z M185.825651,55.0574099 C185.798949,55.2176235 185.852353,55.2977303 185.985864,55.2977303 L196.279589,55.2977303 C196.439803,55.2977303 196.493208,55.2176235 196.439803,55.0574099 L191.23286,38.6755674 C191.206158,38.5687583 191.166105,38.5153538 191.1127,38.5153538 C191.059296,38.5153538 191.019242,38.5687583 190.99254,38.6755674 L185.825651,55.0574099 Z M224.912246,63.1081442 C224.618521,63.1081442 224.404903,62.9746328 224.271392,62.7076101 L218.423595,50.3711615 C218.37019,50.2643525 218.290083,50.2109479 218.183274,50.2109479 L211.494356,50.2109479 C211.360844,50.2109479 211.294089,50.2777036 211.294089,50.411215 L211.294089,62.5874499 C211.294089,62.9345794 211.120524,63.1081442 210.773394,63.1081442 L208.970991,63.1081442 C208.623862,63.1081442 208.450297,62.9345794 208.450297,62.5874499 L208.450297,35.5514019 C208.450297,35.2042724 208.623862,35.0307076 208.970991,35.0307076 L219.224663,35.0307076 C221.521058,35.0307076 223.376866,35.7383178 224.792086,37.1535381 C226.207306,38.5687583 226.914916,40.4245661 226.914916,42.7209613 C226.914916,44.5901202 226.414249,46.1722296 225.412914,47.4672897 C224.411579,48.7623498 223.043087,49.6101469 221.30744,50.0106809 C221.173929,50.0373832 221.133875,50.11749 221.18728,50.2510013 L227.155237,62.5073431 C227.208641,62.6141522 227.235344,62.694259 227.235344,62.7476636 C227.235344,62.987984 227.07513,63.1081442 226.754703,63.1081442 L224.912246,63.1081442 Z M211.494356,37.5140187 C211.360844,37.5140187 211.294089,37.5807744 211.294089,37.7142857 L211.294089,47.7276368 C211.294089,47.8611482 211.360844,47.9279039 211.494356,47.9279039 L218.904236,47.9279039 C220.452967,47.9279039 221.707974,47.4539386 222.669256,46.506008 C223.630537,45.5580774 224.111178,44.3097463 224.111178,42.7610147 C224.111178,41.212283 223.630537,39.9506008 222.669256,38.975968 C221.707974,38.0013351 220.452967,37.5140187 218.904236,37.5140187 L211.494356,37.5140187 Z M234.880017,63.1081442 C234.532887,63.1081442 234.359322,62.9345794 234.359322,62.5874499 L234.359322,35.5914553 C234.359322,35.2443258 234.532887,35.070761 234.880017,35.070761 L236.68242,35.070761 C237.029549,35.070761 237.203114,35.2443258 237.203114,35.5914553 L237.203114,48.9692924 C237.203114,49.0493992 237.229816,49.1028037 237.283221,49.129506 C237.336625,49.1562083 237.39003,49.129506 237.443435,49.0493992 L250.020204,35.3511348 C250.180417,35.164219 250.394035,35.070761 250.661058,35.070761 L252.663728,35.070761 C252.957453,35.070761 253.104316,35.1775701 253.104316,35.3911883 C253.104316,35.4979973 253.050911,35.6048064 252.944102,35.7116155 L243.291232,46.6461949 C243.211125,46.753004 243.197774,46.8464619 243.251178,46.9265688 L253.785224,62.4672897 C253.86533,62.5740988 253.905384,62.6809079 253.905384,62.787717 C253.905384,63.0013351 253.758521,63.1081442 253.464796,63.1081442 L251.382019,63.1081442 C251.114997,63.1081442 250.901378,63.0013351 250.741165,62.787717 L241.328615,48.9692924 C241.221806,48.8090788 241.128348,48.7957276 241.048241,48.929239 L237.283221,52.894526 C237.229816,53.0013351 237.203114,53.0947931 237.203114,53.1748999 L237.203114,62.5874499 C237.203114,62.9345794 237.029549,63.1081442 236.68242,63.1081442 L234.880017,63.1081442 Z M268.279029,63.4686248 C266.40987,63.4686248 264.76768,63.1014686 263.35246,62.3671562 C261.93724,61.6328438 260.835771,60.5914553 260.048054,59.2429907 C259.260337,57.894526 258.866479,56.3391188 258.866479,54.576769 L258.866479,43.5620828 C258.866479,41.8264352 259.260337,40.2910547 260.048054,38.9559413 C260.835771,37.6208278 261.93724,36.5861148 263.35246,35.8518024 C264.76768,35.11749 266.40987,34.7503338 268.279029,34.7503338 C270.148188,34.7503338 271.790377,35.1108144 273.205597,35.8317757 C274.620818,36.552737 275.722286,37.5674232 276.510003,38.8758344 C277.29772,40.1842457 277.691579,41.6929239 277.691579,43.4018692 C277.691579,43.6421896 277.518014,43.7890521 277.170884,43.8424566 L275.368481,43.9626168 L275.248321,43.9626168 C275.141512,43.9626168 275.048054,43.9359146 274.967947,43.88251 C274.88784,43.8291055 274.847787,43.7757009 274.847787,43.7222964 L274.847787,43.481976 C274.847787,41.5861148 274.246986,40.070761 273.045384,38.9359146 C271.843782,37.8010681 270.254997,37.2336449 268.279029,37.2336449 C266.303061,37.2336449 264.714276,37.8077437 263.512674,38.9559413 C262.311071,40.1041389 261.71027,41.6128171 261.71027,43.481976 L261.71027,54.6969292 C261.71027,56.5660881 262.311071,58.0747664 263.512674,59.222964 C264.714276,60.3711615 266.303061,60.9452603 268.279029,60.9452603 C270.254997,60.9452603 271.843782,60.3778371 273.045384,59.2429907 C274.246986,58.1081442 274.847787,56.5927904 274.847787,54.6969292 C274.847787,54.376502 275.021352,54.2296395 275.368481,54.2563418 L277.170884,54.3364486 C277.518014,54.3364486 277.691579,54.4032043 277.691579,54.5367156 L277.691579,54.7369826 C277.691579,56.4726302 277.29772,58.0013351 276.510003,59.3230975 C275.722286,60.6448598 274.620818,61.6662216 273.205597,62.3871829 C271.790377,63.1081442 270.148188,63.4686248 268.279029,63.4686248 Z M301.397667,35.5914553 C301.397667,35.2443258 301.571232,35.070761 301.918361,35.070761 L303.720764,35.070761 C304.067894,35.070761 304.241459,35.2443258 304.241459,35.5914553 L304.241459,62.5874499 C304.241459,62.9345794 304.067894,63.1081442 303.720764,63.1081442 L301.918361,63.1081442 C301.571232,63.1081442 301.397667,62.9345794 301.397667,62.5874499 L301.397667,50.4512684 C301.397667,50.317757 301.330911,50.2510013 301.1974,50.2510013 L288.500471,50.2510013 C288.366959,50.2510013 288.300204,50.317757 288.300204,50.4512684 L288.300204,62.5874499 C288.300204,62.9345794 288.126639,63.1081442 287.779509,63.1081442 L285.977106,63.1081442 C285.629977,63.1081442 285.456412,62.9345794 285.456412,62.5874499 L285.456412,35.5914553 C285.456412,35.2443258 285.629977,35.070761 285.977106,35.070761 L287.779509,35.070761 C288.126639,35.070761 288.300204,35.2443258 288.300204,35.5914553 L288.300204,47.5674232 C288.300204,47.7009346 288.366959,47.7676903 288.500471,47.7676903 L301.1974,47.7676903 C301.330911,47.7676903 301.397667,47.7009346 301.397667,47.5674232 L301.397667,35.5914553 Z M330.030324,63.1081442 C329.736599,63.1081442 329.549683,62.9612817 329.469576,62.6675567 L327.86744,57.7810414 C327.814035,57.6742323 327.74728,57.6208278 327.667173,57.6208278 L315.731258,57.6208278 C315.651151,57.6208278 315.584396,57.6742323 315.530991,57.7810414 L313.968908,62.6675567 C313.888802,62.9612817 313.701886,63.1081442 313.408161,63.1081442 L311.485597,63.1081442 C311.298682,63.1081442 311.16517,63.0547397 311.085063,62.9479306 C311.004957,62.8411215 310.991605,62.694259 311.04501,62.5073431 L319.856759,35.5113485 C319.936866,35.2176235 320.123782,35.070761 320.417507,35.070761 L322.980925,35.070761 C323.274649,35.070761 323.461565,35.2176235 323.541672,35.5113485 L332.393475,62.5073431 C332.420177,62.5607477 332.433528,62.6275033 332.433528,62.7076101 C332.433528,62.8144192 332.386799,62.9078772 332.293341,62.987984 C332.199883,63.0680908 332.086398,63.1081442 331.952887,63.1081442 L330.030324,63.1081442 Z M316.412166,55.0574099 C316.385464,55.2176235 316.438868,55.2977303 316.57238,55.2977303 L326.866105,55.2977303 C327.026318,55.2977303 327.079723,55.2176235 327.026318,55.0574099 L321.819376,38.6755674 C321.792674,38.5687583 321.75262,38.5153538 321.699216,38.5153538 C321.645811,38.5153538 321.605758,38.5687583 321.579055,38.6755674 L316.412166,55.0574099 Z M355.498762,63.1081442 C355.205037,63.1081442 354.991418,62.9746328 354.857907,62.7076101 L349.01011,50.3711615 C348.956706,50.2643525 348.876599,50.2109479 348.76979,50.2109479 L342.080871,50.2109479 C341.94736,50.2109479 341.880604,50.2777036 341.880604,50.411215 L341.880604,62.5874499 C341.880604,62.9345794 341.707039,63.1081442 341.35991,63.1081442 L339.557507,63.1081442 C339.210377,63.1081442 339.036812,62.9345794 339.036812,62.5874499 L339.036812,35.5514019 C339.036812,35.2042724 339.210377,35.0307076 339.557507,35.0307076 L349.811178,35.0307076 C352.107573,35.0307076 353.963381,35.7383178 355.378601,37.1535381 C356.793822,38.5687583 357.501432,40.4245661 357.501432,42.7209613 C357.501432,44.5901202 357.000764,46.1722296 355.999429,47.4672897 C354.998094,48.7623498 353.629603,49.6101469 351.893955,50.0106809 C351.760444,50.0373832 351.72039,50.11749 351.773795,50.2510013 L357.741752,62.5073431 C357.795157,62.6141522 357.821859,62.694259 357.821859,62.7476636 C357.821859,62.987984 357.661645,63.1081442 357.341218,63.1081442 L355.498762,63.1081442 Z M342.080871,37.5140187 C341.94736,37.5140187 341.880604,37.5807744 341.880604,37.7142857 L341.880604,47.7276368 C341.880604,47.8611482 341.94736,47.9279039 342.080871,47.9279039 L349.490751,47.9279039 C351.039483,47.9279039 352.294489,47.4539386 353.255771,46.506008 C354.217053,45.5580774 354.697694,44.3097463 354.697694,42.7610147 C354.697694,41.212283 354.217053,39.9506008 353.255771,38.975968 C352.294489,38.0013351 351.039483,37.5140187 349.490751,37.5140187 L342.080871,37.5140187 Z M373.477213,63.4285714 C371.608054,63.4285714 369.965864,63.0614152 368.550644,62.3271028 C367.135424,61.5927904 366.033955,60.5580774 365.246238,59.222964 C364.458521,57.8878505 364.064663,56.35247 364.064663,54.6168224 L364.064663,43.5620828 C364.064663,41.8264352 364.458521,40.2910547 365.246238,38.9559413 C366.033955,37.6208278 367.135424,36.5861148 368.550644,35.8518024 C369.965864,35.11749 371.608054,34.7503338 373.477213,34.7503338 C375.319669,34.7503338 376.955184,35.1108144 378.383755,35.8317757 C379.812326,36.552737 380.913795,37.5607477 381.688161,38.8558077 C382.462527,40.1508678 382.84971,41.6128171 382.84971,43.2416555 L382.84971,43.6421896 C382.84971,43.9893191 382.676145,44.1628838 382.329015,44.1628838 L380.526612,44.1628838 C380.179483,44.1628838 380.005918,44.0160214 380.005918,43.7222964 L380.005918,43.2817089 C380.005918,41.4926569 379.411792,40.0373832 378.223541,38.9158879 C377.03529,37.7943925 375.453181,37.2336449 373.477213,37.2336449 C371.501245,37.2336449 369.91246,37.8077437 368.710858,38.9559413 C367.509256,40.1041389 366.908455,41.6128171 366.908455,43.481976 L366.908455,54.6969292 C366.908455,56.5660881 367.522607,58.0747664 368.750911,59.222964 C369.979216,60.3711615 371.594703,60.9452603 373.597373,60.9452603 C375.546639,60.9452603 377.102046,60.411215 378.263595,59.3431242 C379.425143,58.2750334 380.005918,56.8464619 380.005918,55.0574099 L380.005918,51.4526035 C380.005918,51.3190921 379.939162,51.2523364 379.805651,51.2523364 L374.078014,51.2523364 C373.730884,51.2523364 373.55732,51.0787717 373.55732,50.7316422 L373.55732,49.2897196 C373.55732,48.9425901 373.730884,48.7690254 374.078014,48.7690254 L382.329015,48.7690254 C382.676145,48.7690254 382.84971,48.9425901 382.84971,49.2897196 L382.84971,54.3364486 C382.84971,57.1935915 382.001912,59.423231 380.306318,61.0253672 C378.610724,62.6275033 376.334356,63.4285714 373.477213,63.4285714 Z M408.758735,37.0333778 C408.758735,37.3805073 408.58517,37.5540721 408.238041,37.5540721 L393.658601,37.5540721 C393.52509,37.5540721 393.458334,37.6208278 393.458334,37.7543391 L393.458334,47.5674232 C393.458334,47.7009346 393.52509,47.7676903 393.658601,47.7676903 L403.832166,47.7676903 C404.179296,47.7676903 404.35286,47.941255 404.35286,48.2883845 L404.35286,49.7303071 C404.35286,50.0774366 404.179296,50.2510013 403.832166,50.2510013 L393.658601,50.2510013 C393.52509,50.2510013 393.458334,50.317757 393.458334,50.4512684 L393.458334,60.4245661 C393.458334,60.5580774 393.52509,60.6248331 393.658601,60.6248331 L408.238041,60.6248331 C408.58517,60.6248331 408.758735,60.7983979 408.758735,61.1455274 L408.758735,62.5874499 C408.758735,62.9345794 408.58517,63.1081442 408.238041,63.1081442 L391.135237,63.1081442 C390.788107,63.1081442 390.614543,62.9345794 390.614543,62.5874499 L390.614543,35.5914553 C390.614543,35.2443258 390.788107,35.070761 391.135237,35.070761 L408.238041,35.070761 C408.58517,35.070761 408.758735,35.2443258 408.758735,35.5914553 L408.758735,37.0333778 Z M424.35473,27 C425.796652,27 427.118414,27.3471295 428.320017,28.0413885 C429.521619,28.7356475 430.469549,29.6769025 431.163808,30.8651535 C431.858067,32.0534045 432.205197,33.3551402 432.205197,34.7703605 C432.205197,36.212283 431.858067,37.5340454 431.163808,38.7356475 C430.469549,39.9372497 429.521619,40.8851802 428.320017,41.5794393 C427.118414,42.2736983 425.796652,42.6208278 424.35473,42.6208278 C422.912807,42.6208278 421.584369,42.2736983 420.369416,41.5794393 C419.154463,40.8851802 418.199856,39.9372497 417.505597,38.7356475 C416.811338,37.5340454 416.464209,36.212283 416.464209,34.7703605 C416.464209,33.3551402 416.818014,32.0534045 417.525624,30.8651535 C418.233234,29.6769025 419.18784,28.7356475 420.389443,28.0413885 C421.591045,27.3471295 422.912807,27 424.35473,27 Z M424.35473,41.2189586 C425.529629,41.2189586 426.611071,40.9319092 427.599055,40.3578104 C428.587039,39.7837116 429.361405,39.0026702 429.922153,38.0146862 C430.4829,37.0267023 430.763274,35.9452603 430.763274,34.7703605 C430.763274,33.6221629 430.4829,32.5607477 429.922153,31.5861148 C429.361405,30.611482 428.587039,29.8371162 427.599055,29.2630174 C426.611071,28.6889186 425.529629,28.4018692 424.35473,28.4018692 C423.17983,28.4018692 422.098388,28.6889186 421.110404,29.2630174 C420.12242,29.8371162 419.341378,30.611482 418.76728,31.5861148 C418.193181,32.5607477 417.906131,33.6221629 417.906131,34.7703605 C417.906131,35.9452603 418.193181,37.0267023 418.76728,38.0146862 C419.341378,39.0026702 420.12242,39.7837116 421.110404,40.3578104 C422.098388,40.9319092 423.17983,41.2189586 424.35473,41.2189586 Z M426.878094,33.3684913 C426.878094,34.222964 426.530965,34.823765 425.836706,35.1708945 C425.729896,35.2242991 425.703194,35.317757 425.756599,35.4512684 L426.71788,37.8144192 C426.744583,37.8678238 426.757934,37.9479306 426.757934,38.0547397 C426.757934,38.2950601 426.611071,38.4152203 426.317346,38.4152203 L426.036973,38.4152203 C425.743248,38.4152203 425.542981,38.2817089 425.436172,38.0146862 L424.514943,35.5714286 C424.461539,35.4646195 424.381432,35.411215 424.274623,35.411215 L423.713875,35.411215 C423.580364,35.411215 423.513608,35.4779706 423.513608,35.611482 L423.513608,37.894526 C423.513608,38.2416555 423.340043,38.4152203 422.992914,38.4152203 L422.792647,38.4152203 C422.445517,38.4152203 422.271953,38.2416555 422.271953,37.894526 L422.271953,31.7663551 C422.271953,31.4192256 422.445517,31.2456609 422.792647,31.2456609 L424.795317,31.2456609 C425.409469,31.2456609 425.910137,31.4459279 426.29732,31.8464619 C426.684503,32.246996 426.878094,32.7543391 426.878094,33.3684913 Z M423.713875,32.3271028 C423.580364,32.3271028 423.513608,32.3938585 423.513608,32.5273698 L423.513608,34.2496662 C423.513608,34.3831776 423.580364,34.4499332 423.713875,34.4499332 L424.59505,34.4499332 C424.915477,34.4499332 425.169149,34.3497997 425.356065,34.1495327 C425.542981,33.9492657 425.636439,33.7022697 425.636439,33.4085447 C425.636439,33.0614152 425.542981,32.7943925 425.356065,32.6074766 C425.169149,32.4205607 424.915477,32.3271028 424.59505,32.3271028 L423.713875,32.3271028 Z" id="Combined-Shape" fill="#95A1AC"></path>
        </g>
    </g>
</svg>