<svg viewBox="0 0 48 48" xmlns="http://www.w3.org/2000/svg" xmlns:xlink="http://www.w3.org/1999/xlink">
  <defs>
    <path d="M12.5844378,17.5448976 C15.2850079,16.4885449 17.3100407,12.8107214 15.1278384,7.58159211 C12.945636,2.3524628 9.13311926,0.292531501 6.43254912,1.34888419 C3.73197898,2.40523688 2.90223545,6.31576832 5.08443777,11.5448976 C7.2666401,16.7740269 9.88386763,18.6012503 12.5844378,17.5448976 Z" id="c"/>
    <path d="M22.663041,36.7302726 C24.7339121,35.8866537 25.0561485,31.8173997 23.3827759,27.6413395 C21.7094034,23.4652793 18.6740941,20.7638019 16.603223,21.6074208 C14.5323518,22.4510397 14.2101155,26.5202937 15.883488,30.6963539 C17.5568605,34.8724141 20.5921698,37.5738915 22.663041,36.7302726 Z" id="d"/>
    <path d="M28.0779741,20.9502184 L31.2239669,20.1885231 C33.3511843,19.6734896 35.4931518,20.9804229 36.0081853,23.1076403 C36.0927967,23.4571066 36.1294543,23.8164624 36.1171489,24.1758152 L35.739385,35.2076407 C35.6640547,37.4075113 33.8196398,39.1297915 31.6197692,39.0544611 C31.4833524,39.0497898 31.3472657,39.0381136 31.212047,39.0194786 L29.2265425,38.7458494 C27.6790015,38.5325769 26.3527874,37.5319716 25.722909,36.1024186 C24.5707521,33.4875182 23.94333,31.1934737 23.8406426,29.2202851 C23.7422827,27.3302533 24.1453703,25.4037098 25.0499053,23.4406547 C25.6255636,22.1913259 26.7410276,21.2739146 28.0779741,20.9502184 Z" id="e"/>
    <rect id="a" x="2.83466844" y="1.37246083" width="10.6724975" height="17.208632" rx="4.5"/>
  </defs>
  <g fill="none" fill-rule="evenodd">
    <path d="M12.9632828,42.6050742 L14.9523266,42.8141311 C15.7762155,42.9007253 16.3739109,43.6388177 16.2873167,44.4627067 C16.2007225,45.2865956 15.4626301,45.884291 14.6387412,45.7976968 L12.6496974,45.5886399 C11.8258085,45.5020457 11.228113,44.7639533 11.3147072,43.9400643 C11.4013015,43.1161754 12.1393939,42.51848 12.9632828,42.6050742 Z M13,7.5 C17.5,2.5 23.5,1.5 31,4 C36,5.66666667 39.6666667,11.6666667 42,22 C40.6246579,23.1280204 39.6246579,23.4613537 39,23 C38.1387526,22.3639084 37.150648,20.9103682 37,18.5 C36.5,10.5 33.5,5.5 24,5.5 C17,5.5 12.8333333,10.5 11.5,20.5 C11.3249714,20.5811115 11.1581159,20.6527918 10.9994336,20.7150409 L11,23 L12.5084153,25.2818113 C14.3302666,25.2353582 16.0732244,26.3065253 16.7961471,28.0958219 L18.2945735,31.8045573 C18.6390445,32.657153 18.7036522,33.5533416 18.5316169,34.3913021 L18.602024,34.5 L18.4895955,34.5761697 C18.1527804,35.9260822 17.1966563,37.101551 15.8079758,37.6626143 C13.5036631,38.5936171 10.8809216,37.4803294 9.94991881,35.1760167 L8.45149243,31.4672812 C7.54678223,29.2280449 8.57252675,26.6881115 10.7457298,25.6921045 L9,23 L9.00023649,21.0419347 C8.70977501,21.0375015 8.37636285,21.0235233 8,21 C8.33333333,15.3333333 10,10.8333333 13,7.5 Z" fill="#9883B4" opacity="0.971512278"/>
    <ellipse fill="#CAC1D5" transform="translate(15.459012, 30.548407) rotate(-22.000000) translate(-15.459012, -30.548407)" cx="15.4590118" cy="30.5484067" rx="4" ry="8"/>
    <g transform="translate(9.415562, 19.955102)">
      <mask id="b" fill="#fff">
        <use xlink:href="#a"/>
      </mask>
      <use fill="#CAC1D5" transform="translate(8.170917, 9.976777) rotate(-22.000000) translate(-8.170917, -9.976777)" xlink:href="#a"/>
      <g mask="url(#b)">
        <use fill="#FFF" xlink:href="#c"/>
        <use fill="#7D679C" xlink:href="#c"/>
      </g>
    </g>
    <use fill="#FFF" xlink:href="#d"/>
    <use fill="#7D679C" xlink:href="#d"/>
    <path d="M22.2170975,34.161802 C23.470829,33.6552615 23.5603183,30.9505681 22.4169773,28.1207 C21.2736364,25.2908319 19.3304253,23.4074027 18.0766937,23.9139431 C16.8229622,24.4204835 16.7334729,27.125177 17.8768138,29.9550451 C19.0201548,32.7849132 20.9633659,34.6683424 22.2170975,34.161802 Z" fill="#9883B4" opacity="0.971512278"/>
    <g transform="translate(30.060954, 29.291569) rotate(26.000000) translate(-30.060954, -29.291569)">
      <use fill="#FFF" xlink:href="#e"/>
      <use fill="#7D679C" xlink:href="#e"/>
    </g>
    <path d="M32.3421083,39.673797 C34.9654608,39.673797 37.0921083,35.4205021 37.0921083,30.173797 C37.0921083,24.9270918 34.9654608,20.673797 32.3421083,20.673797 C29.7187557,20.673797 26.3033213,24.5832417 26.3033213,29.8299468 C26.3033213,35.0766519 29.7187557,39.673797 32.3421083,39.673797 Z" fill="#CAC1D5" transform="translate(31.697715, 30.173797) rotate(26.000000) translate(-31.697715, -30.173797)"/>
    <rect fill="#9883B4" opacity="0.971512278" transform="translate(34.369435, 31.791724) rotate(26.000000) translate(-34.369435, -31.791724)" x="30.3547776" y="25.2917239" width="8.0293147" height="13" rx="4.01465735"/>
    <path d="M24,2.5 C39.5,2.5 42.5,20 42.5,22 C42.5,22.8726676 42.0002337,23.316964 41.000701,23.3328893 L41,25 L39.4307333,27.4536547 C40.0342724,28.3320161 40.1604772,29.5012581 39.6599486,30.5274939 L36.5331619,36.9383567 C35.8888871,38.2593157 34.4185941,38.9078746 33.0476263,38.5654122 L31.2850465,40.66453 L16.2255706,44.7596593 C16.0151925,45.4250991 15.3598276,45.873486 14.6387412,45.7976968 C14.1325158,45.7444904 13.7116851,45.4453244 13.482512,45.0314228 C13.3752424,44.9245204 13.2923074,44.7902034 13.2468605,44.6348871 L13.2468605,44.6348871 L13.2402068,44.6108875 C13.1762942,44.3669406 13.2217551,44.1200633 13.3462059,43.9222117 C13.5308037,43.2182411 14.2064016,42.7357312 14.9523266,42.8141311 C15.2123882,42.8414647 15.4499128,42.9337108 15.6504933,43.0730779 L29.7529576,39.3789548 L31.3614194,37.4615793 C30.6779961,36.5709837 30.5125878,35.3357885 31.0381366,34.2582538 L34.1649233,27.847391 C34.8811602,26.3788878 36.6182444,25.7413804 38.1048419,26.3726245 L39,25 L39,23 L39,23 C38.6666667,15.6666667 37.5,10.8333333 35.5,8.5 C32.5,5 29.5,3 24,3 C18.5,3 9.5,6.5 8,21 L7.5,21 L7.5,21 C7.5,19 8.5,2.5 24,2.5 Z" fill="#CAC1D5"/>
  </g>
</svg>