<svg viewBox="0 0 48 48" xmlns="http://www.w3.org/2000/svg" xmlns:xlink="http://www.w3.org/1999/xlink">
  <defs>
    <linearGradient x1="50%" y1="0%" x2="50%" y2="99.5547421%" id="c">
      <stop stop-color="#CDC2DC" offset="0%"/>
      <stop stop-color="#AFA5BE" offset="100%"/>
    </linearGradient>
    <linearGradient x1="50%" y1="99.5547421%" x2="50%" y2="3.03576608e-15%" id="e">
      <stop stop-color="#796299" offset="0%"/>
      <stop stop-color="#8877A1" offset="100%"/>
    </linearGradient>
    <filter x="-50.0%" y="-68.2%" width="200.0%" height="236.4%" filterUnits="objectBoundingBox" id="a">
      <feGaussianBlur stdDeviation="5" in="SourceGraphic"/>
    </filter>
    <rect id="b" x="12" y="20" width="30" height="22" rx="9"/>
    <path d="M17.1463013,2.66357422 L17.2398729,4.75518786 C22.8379041,4.41410103 27.094707,4.16666787 30.0102815,4.00320372 C31.1746634,3.93931013 33.1712362,7.62331019 35.5,7.5 C39.2279221,7.30881631 42,8.16438562 42,12.8205124 L42,12.8205124 L42,35.1580704 C42,39.8141972 38.9779221,44.4482079 35.25,44.2570242 C33.7936321,44.1799498 28.9955177,44.5220857 24.0314843,44.7676685 L23.2031536,44.8076165 C23.065024,44.8140961 22.9269025,44.820479 22.7888571,44.8267542 L21.9620438,44.8630253 C20.9537083,44.9055712 19.9567963,44.941135 18.9981709,44.9653539 L19,45 L18.5979455,44.9748452 C17.8697198,44.9909546 17.1663378,45 16.5,45 C15.9100338,45 15.2942315,44.9057318 14.6754965,44.7303091 L11.4385954,44.5274122 C6.69528114,44.2309551 3,40.2975085 3,35.544939 L3,17.8570541 C3,13.6080709 5.24693859,9.67587743 8.90757702,7.5186605 L17.1463013,2.66357422 Z M21.2857143,16.0005714 C19.8477218,15.9787297 18.575142,16.5847728 17.7977464,17.5325134 L18.4808189,33.1245527 C19.2325097,33.6866608 20.2130951,34.0177305 21.2857143,33.9992663 L21.2857143,33.9992663 L27.7142857,33.8886037 C30.0812204,33.8478589 32,32.1749016 32,30.1519491 L32,30.1519491 L32,19.82619 C32,17.8032374 30.0812204,16.1341661 27.7142857,16.0982148 L27.7142857,16.0982148 Z" id="d"/>
  </defs>
  <g fill="none" fill-rule="evenodd">
    <g opacity="0.300000012" filter="url(#a)">
      <use fill="#FFF" xlink:href="#b"/>
      <use fill="url(#c)" xlink:href="#b"/>
    </g>
    <use fill="#FFF" xlink:href="#d"/>
    <use fill-opacity="0.7" fill="url(#e)" xlink:href="#d"/>
    <path d="M16,3.5 L16.0340861,4.82883805 C15.9397471,4.83461436 15.8450517,4.84041574 15.75,4.84624222 C12.0220779,5.08508241 8,11.7738971 8,16 L8,37 C8,40.6963073 11.6468302,44.0466814 15.0587873,44.8286148 L14.2039776,44.7517274 C9.56018008,44.3393817 6,40.4490681 6,35.7869994 L6,17.4296557 C6,13.8577105 7.5912548,10.4714364 10.3410563,8.19165914 L16,3.5 Z" fill="#9883B4" opacity="0.971512278"/>
    <path d="M29.8895787,13.5871007 C32.6264589,13.5459213 34.8608418,15.3942115 34.9937457,17.7573721 L35,17.9803848 L35,30.4643789 C35,32.8583765 32.8485529,34.7761438 30.1446402,34.8462894 L29.8895787,34.8474108 L22.2239467,34.7166946 C19.4870665,34.6700247 17.2526836,32.8104402 17.1197797,30.5189558 L17.1135254,30.302906 L17.1135254,18.1059749 C17.1135254,15.7888454 19.2649725,13.8647752 21.9688851,13.7115712 L22.2239467,13.7024385 L29.8895787,13.5871007 Z M29.9076884,14.7681784 L22.2420564,14.8835162 C20.1127654,14.9155537 18.4299942,16.3011772 18.3125122,17.9246651 L18.305957,18.1059749 L18.305957,30.302906 C18.305957,31.9434891 19.9141211,33.3910267 22.0096815,33.5261049 L22.2444704,33.5356556 L29.9101024,33.6663718 C32.0193835,33.7023397 33.6848121,32.3398529 33.8010809,30.6530782 L33.8075684,30.4643789 L33.8075684,17.9803848 C33.8075684,16.2700525 32.2160003,14.8407433 30.1402622,14.7703526 L29.9076884,14.7681784 Z" fill="#9883B4" opacity="0.971512278" transform="translate(26.056763, 24.216918) scale(-1, 1) translate(-26.056763, -24.216918)"/>
    <path d="M38.6363636,5.03667696 C42.7031877,5.42086273 46,9.16972692 46,13.4099995 L46,36.5900005 C46,40.8302731 42.7031877,44.5791373 38.6363636,44.963323 L20.3636364,44.9729204 C16.2968123,45.3571062 13,41.608242 13,36.5995979 L13,10.4004021 C13,5.39175798 16.2968123,1.64289378 20.3636364,2.02707955 L38.6363636,5.03667696 Z M28.25,15.0016678 C26.4550746,14.940046 25,16.5936277 25,18.6950458 L25,29.3049542 C25,31.4063723 26.4550746,33.059954 28.25,32.9983322 L34.75,32.7751798 C36.5449254,32.713558 38,32.0599763 38,30.0818018 L38,18.9181982 C38,16.9400237 36.7949254,16.0616218 35,16 L28.25,15.0016678 Z" fill="#CAC1D5"/>
  </g>
</svg>