<svg viewBox="0 0 48 48" xmlns="http://www.w3.org/2000/svg" xmlns:xlink="http://www.w3.org/1999/xlink">
  <defs>
    <radialGradient cx="50%" cy="0%" fx="50%" fy="0%" r="116.666667%" gradientTransform="translate(0.500000,0.000000),scale(1.000000,0.857143),rotate(-90.000000),translate(-0.500000,-0.000000)" id="e">
      <stop stop-color="#FFF" offset="0%"/>
      <stop stop-color="#FFF" stop-opacity="0" offset="100%"/>
    </radialGradient>
    <radialGradient cx="50%" cy="0%" fx="50%" fy="0%" r="116.666667%" gradientTransform="translate(0.500000,0.000000),scale(1.000000,0.857143),rotate(-90.000000),translate(-0.500000,-0.000000)" id="g">
      <stop stop-color="#FFF" offset="0%"/>
      <stop stop-color="#FFF" stop-opacity="0" offset="100%"/>
    </radialGradient>
    <radialGradient cx="50%" cy="0%" fx="50%" fy="0%" r="116.666667%" gradientTransform="translate(0.500000,0.000000),scale(1.000000,0.857143),rotate(-90.000000),translate(-0.500000,-0.000000)" id="i">
      <stop stop-color="#FFF" offset="0%"/>
      <stop stop-color="#FFF" stop-opacity="0" offset="100%"/>
    </radialGradient>
    <ellipse id="d" cx="15.2857143" cy="24.5" rx="4.28571429" ry="5"/>
    <ellipse id="f" cx="27.8571429" cy="25" rx="3.85714286" ry="4.5"/>
    <ellipse id="h" cx="39.4285714" cy="25.5" rx="3.42857143" ry="4"/>
    <linearGradient x1="50%" y1="99.5547421%" x2="50%" y2="3.03576608e-15%" id="c">
      <stop stop-color="#796299" offset="0%"/>
      <stop stop-color="#8877A1" offset="100%"/>
    </linearGradient>
    <filter x="-15.0%" y="-33.3%" width="130.0%" height="166.7%" filterUnits="objectBoundingBox" id="a">
      <feGaussianBlur stdDeviation="2" in="SourceGraphic"/>
    </filter>
    <path d="M3.5,16 L6.22421066,18.7242107 C6.40156416,18.9015642 6.50579536,19.1390886 6.51623695,19.3896869 L6.96721613,30.2131872 C6.98644829,30.6747589 6.68700158,31.0894281 6.24280419,31.2163417 L3.5,32 L3.5,32 L3.5,16 Z" id="b"/>
  </defs>
  <g fill="none" fill-rule="evenodd">
    <rect fill="#B0A6BE" opacity="0.200000003" filter="url(#a)" x="5" y="15" width="40" height="18" rx="2"/>
    <path d="M7,16 L43.157405,18.854532 C44.1976936,18.93666 45,19.8048027 45,20.8483283 L45,30 C45,31.1045695 44.1045695,32 43,32 L7,32 L7,32 L7,16 Z" fill="#CAC1D5"/>
    <g transform="translate(5.250000, 24.000000) scale(-1, 1) translate(-5.250000, -24.000000)">
      <use fill="#FFF" xlink:href="#b"/>
      <use fill-opacity="0.7" fill="url(#c)" xlink:href="#b"/>
    </g>
    <use fill="#DCD7E3" xlink:href="#d"/>
    <use fill-opacity="0.6" fill="url(#e)" xlink:href="#d"/>
    <use fill="#DCD7E3" xlink:href="#f"/>
    <use fill-opacity="0.6" fill="url(#g)" xlink:href="#f"/>
    <g>
      <use fill="#DCD7E3" xlink:href="#h"/>
      <use fill-opacity="0.6" fill="url(#i)" xlink:href="#h"/>
    </g>
  </g>
</svg>