<?xml version="1.0" encoding="UTF-8"?>
<svg width="500px" height="91px" viewBox="0 0 500 91" version="1.1" xmlns="http://www.w3.org/2000/svg" xmlns:xlink="http://www.w3.org/1999/xlink">
    <title>logos /rakuten</title>
    <g id="rakuten" stroke="none" stroke-width="1" fill="none" fill-rule="evenodd">
        <g id="rak-logo-brand-v1" transform="translate(100.000000, 1.000000)" fill="#95A1AC">
            <path d="M241.5,74.8242188 L74.4609375,89.2734375 L60,74.8242188 L241.5,74.8242188 Z M198.65625,4.06640625 L198.65625,16.265625 L208.207031,16.265625 L208.207031,27.984375 L198.65625,27.984375 L198.65625,49.078125 C198.65625,53.71875 202.089844,55.1132813 203.917969,55.1132813 C205.253293,55.1057876 206.555608,54.6975382 207.65625,53.9414062 L207.65625,53.9414062 L215.027344,63.796875 C211.697058,65.7219324 207.938949,66.7853202 204.09375,66.890625 C195.75,66.890625 187.476562,60.3164062 187.476562,49.3125 L187.476562,49.3125 L187.476562,28.0664062 L181.617188,28.0664062 L181.617188,16.3476562 L187.476562,16.3476562 L187.476562,4.06640625 L198.65625,4.06640625 Z M233.472656,15.09375 C246.199219,15.09375 257.636719,26.6835938 254.882812,44.4140625 L254.882812,44.4140625 L222.679688,44.4140625 C224.144531,55.6640625 236.871094,61.3710937 244.511719,50.1210938 L244.511719,50.1210938 L254.332031,55.8164062 C247.992187,64.828125 240.398438,66.84375 234.539062,66.84375 C222.855469,66.84375 211.207031,56.203125 211.207031,40.96875 C211.207031,26.4609375 220.582031,15.09375 233.472656,15.09375 Z M148.042969,16.3476562 L148.042969,45.2695312 C148.042969,50.7070312 151.769531,55.2890625 157.195312,55.2890625 C162.621094,55.2890625 166.359375,50.7070312 166.359375,45.2695312 L166.359375,45.2695312 L166.359375,16.3476562 L177.515625,16.3710937 L177.515625,65.5898438 L166.347656,65.5898438 L166.347656,63.7617187 C163.551594,65.6966557 160.243647,66.7571566 156.84375,66.8085937 C144.972656,66.8085937 136.851563,57.140625 136.851563,45.2695312 L136.851563,45.2695312 L136.851563,16.3476562 L148.042969,16.3476562 Z M66.2695312,15.0820312 C70.0509802,15.1033283 73.7338978,16.2900462 76.8164062,18.4804688 L76.8164062,18.4804688 L76.8164063,16.3476562 L87.9960938,16.3242188 L87.9960938,65.5429688 L76.8164062,65.5429688 L76.8164062,63.3632812 C73.7338978,65.5537038 70.0509802,66.7404217 66.2695312,66.7617188 C53.5546875,66.7617188 43.8984375,55.1601563 43.8984375,40.921875 C43.8984375,26.6835938 53.5546875,15.0820312 66.2695312,15.0820312 Z M280.007812,15.1289062 C291.878906,15.1289062 300,24.7851562 300,36.65625 L300,36.65625 L300,65.5898438 L288.820312,65.5898438 L288.820312,36.65625 C288.820312,31.2304687 285.105469,26.6484375 279.667969,26.6484375 C274.230469,26.6484375 270.503906,31.2304687 270.503906,36.65625 L270.503906,36.65625 L270.503906,65.5898438 L259.324219,65.5664062 L259.324219,16.3476563 L270.503906,16.3476563 L270.503906,18.1757813 C273.299969,16.2408443 276.607915,15.1803434 280.007812,15.1289062 Z M19.3242187,4.0664058 C28.5574134,4.06450729 36.7311597,10.0357549 39.5366643,18.8324038 C42.3421689,27.6290527 39.1348588,37.2300469 31.6054687,42.5742188 L31.6054687,42.5742188 L48.9609375,65.5898438 L34.2773438,65.5898438 L19.8984375,46.5117188 L11.6953125,46.5117188 L11.6953125,65.5898438 L0,65.5898438 L0,4.0664058 Z M105.878906,0 L105.878906,33.5039062 L119.285156,16.3359375 L134.953125,16.3359375 L115.78125,39.421875 L138.023438,65.5898438 L122.355469,65.5898438 L105.878906,45.3632812 L105.878906,65.5898438 L94.359375,65.5898438 L94.359375,0 L105.878906,0 Z M66.2695312,27 C60,27 55.40625,33.1640625 55.40625,40.96875 C55.40625,48.7734375 60,54.9375 66.2695312,54.9375 L66.2695312,54.9375 L66.28125,54.9375 C72.5625,54.9375 76.96875,48.7617187 76.96875,40.96875 C76.96875,33.1757812 72.5390625,27 66.2695312,27 Z M19.3242188,15.75 L11.6953125,15.75 L11.6953125,34.828125 L19.3242188,34.828125 C24.5924974,34.828125 28.8632811,30.5573412 28.8632811,25.2890625 C28.8632811,20.0207838 24.5924974,15.75 19.3242188,15.75 L19.3242188,15.75 Z M243.234375,34.6054688 C241.054688,22.4179688 225.457031,23.0742188 223.101562,34.6054688 L223.101562,34.6054688 Z" id="Combined-Shape"></path>
        </g>
    </g>
</svg>