<?xml version="1.0" encoding="UTF-8"?>
<svg width="500px" height="91px" viewBox="0 0 500 91" version="1.1" xmlns="http://www.w3.org/2000/svg" xmlns:xlink="http://www.w3.org/1999/xlink">
    <title>logos /wex</title>
    <g id="wex" stroke="none" stroke-width="1" fill="none" fill-rule="evenodd">
        <path d="M146.388581,79.1923433 C143.91736,82.5850059 141.227044,85.3482307 137.727399,87.250833 C132.264333,90.2206951 126.430492,91.2498516 120.26398,90.8658872 C113.309754,90.4324617 107.016109,88.3858728 101.724508,83.6995286 C97.1748224,79.6704669 94.6314246,74.5030681 93.2241657,68.7047659 C92.3148149,64.9578155 92.0316045,61.1383222 92.0323373,57.291717 C92.0352683,39.1992261 92.0513889,21.1063689 92.0000475,3.01387814 C91.9956994,1.54506773 92.2877029,1.04606055 93.8649613,1.07243978 C99.7783063,1.17246105 105.695681,1.16403435 111.609393,1.07500443 C113.019949,1.05375449 113.289603,1.46812829 113.28594,2.79771497 C113.240142,20.8290206 113.251866,38.861059 113.257729,56.892731 C113.259194,60.5788626 113.58234,64.1946496 115.734812,67.3810412 C117.068795,69.3561864 118.979091,70.4186833 121.245507,70.9656861 C129.111648,72.8642582 135.507147,68.2116207 135.57566,60.1315148 C135.735767,41.2487461 135.670552,22.3637791 135.695832,3.47991127 C135.698763,1.11274139 135.696198,1.11274139 138.121989,1.11274139 C143.793157,1.11237501 149.465426,1.1614697 155.135495,1.07830183 C156.566569,1.05741827 156.955663,1.43185685 156.951266,2.88015008 C156.899973,20.8506369 156.906568,38.8214902 156.927085,56.791977 C156.931482,60.3997037 157.165231,63.9568701 159.259449,67.1370333 C160.436256,68.9242264 162.071036,70.147197 163.990858,70.6744153 C171.383272,72.7045172 178.207799,70.1482962 179.166245,61.1540765 C179.398162,58.9803543 179.466309,56.7802529 179.469606,54.5918756 C179.493054,37.4131322 179.508442,20.2343887 179.440662,3.05564526 C179.434067,1.41610258 179.864562,1.04532779 181.45501,1.07243978 C187.368721,1.1731938 193.285364,1.14241803 199.199808,1.08672853 C200.361227,1.07610357 200.735665,1.34246055 200.732751,2.5731251 C200.691334,20.9704426 200.766075,39.3677601 200.671549,57.7643449 C200.636377,64.6339371 199.62041,71.3522151 196.037231,77.4322622 C191.42636,85.2562698 184.339506,89.2919262 175.570975,90.5526338 C169.392372,91.441101 163.302067,91.0219643 157.463096,88.4785665 C152.919273,86.4993912 149.314111,83.4383009 146.388581,79.1923433 M359.732066,1.12627216 C368.137149,1.17989852 376.542233,1.15388567 384.951346,1.15388567 C385.188393,1.95881869 384.557856,2.33142537 384.251197,2.78280337 C374.781785,16.711039 365.304679,30.6337789 355.766754,44.5151181 C354.948631,45.7058474 354.969148,46.4686469 355.778112,47.6472858 C365.449398,61.7374606 375.059866,75.8697689 384.68389,89.9925513 C384.845829,90.2303308 384.979557,90.487162 385.264966,90.9682166 L379.971167,90.9682166 C373.142609,90.9682166 366.313685,90.9356089 359.485493,90.9997889 C358.311251,91.0099837 357.630154,90.6520322 356.978,89.6924875 C351.137565,81.0946891 345.247302,72.5309639 339.370961,63.9577128 C339.033893,63.4660332 338.835316,62.8516168 338.092301,62.5761004 C334.236536,68.2241875 330.367948,73.8894944 326.500826,79.5562668 C324.169927,82.9723776 321.844524,86.3921522 319.510329,89.8056984 C319.075071,90.4424638 318.706861,91.0066863 317.698222,90.9997889 C309.162708,90.9429365 300.626827,90.9660183 292.090947,90.9597899 C291.930107,90.9597899 291.769266,90.8920099 291.376509,90.8037128 C293.963506,87.0032712 296.475029,83.3094456 298.990582,79.6185511 C306.354052,68.8166211 313.709462,58.0095619 321.10041,47.2270499 C321.718124,46.3257594 321.617736,45.7263646 321.017975,44.8507206 C311.467227,30.9016014 301.957879,16.9242711 292.443036,2.95023823 C292.110731,2.46185603 291.820926,1.94452993 291.335475,1.15425205 C294.340875,1.15425205 297.30569,1.15616535 300.243433,1.15721021 L306.086828,1.15731776 C309.963701,1.15551854 313.808465,1.1488785 317.653157,1.13080384 C318.639814,1.12627216 319.046494,1.68073759 319.498238,2.34241672 L337.186614,28.2581823 C338.305166,29.8984578 338.294175,29.9072508 339.459991,28.2021265 C345.293832,19.6706425 351.154784,11.1574774 356.92744,2.58459274 C357.678149,1.46933734 358.444979,1.11834698 359.732066,1.12627216 Z M295.484745,28.0962431 C298.838938,35.6597558 299.895573,43.6013707 298.889864,51.8357219 C298.726093,53.1752008 298.013121,53.0114298 297.170085,53.0165591 C288.27149,53.070783 279.373261,53.1425932 270.4743,53.182162 C257.858065,53.2385843 245.241463,53.2722911 232.624862,53.3155237 L232.354546,53.3161869 L231.503907,53.3162022 C231.302969,53.3160529 231.091447,53.3158901 230.864048,53.3158901 C232.507255,58.7181374 235.659207,62.8483194 240.020207,66.0816075 C248.467058,72.3444773 261.372731,72.3825807 269.876737,65.1268258 C270.553438,64.5494136 271.241496,64.2603412 272.168799,64.2629059 C279.361171,64.2823239 286.553909,64.2823239 293.745547,64.1954923 C295.296793,64.176807 295.316944,64.6179264 294.697032,65.7929014 C287.070136,80.247989 275.275321,89.0308084 258.93082,90.5476144 C239.653829,92.3366394 224.859841,84.361684 215.083404,67.7834345 C209.1184,57.667731 207.797606,46.5056511 210.794214,35.1453607 C215.106486,18.7990286 225.529214,7.86227145 241.737055,3.04622934 C263.617531,-3.45551911 286.23919,7.24858788 295.484745,28.0962431 Z M315.110858,5.78335696 C310.23876,5.81751443 305.366296,5.80029465 300.181677,5.80029465 C300.768249,6.71294288 301.171632,7.37572113 301.608354,8.01578394 C309.935399,20.2150806 318.253285,32.4202393 326.619166,44.5924239 C327.345327,45.6490588 327.399551,46.3470094 326.636386,47.4538381 C318.945373,58.6082239 311.323973,69.8106053 303.689383,81.0034609 C302.545184,82.6811069 301.433226,84.3803693 300.187906,86.2463337 C301.931378,86.2463337 303.64155,86.2448275 305.329509,86.2438521 L308.679094,86.2432126 C310.896785,86.2440629 313.088125,86.2482712 315.279392,86.2606659 C316.052451,86.265019 316.456199,85.9360113 316.872771,85.3237933 C325.520764,72.6144981 334.185243,59.9161943 342.877567,47.2373085 C343.481358,46.3565352 343.512867,45.7498128 342.884162,44.8345999 C334.179381,32.1557142 325.514169,19.4500828 316.86984,6.72979628 C316.401609,6.04063879 315.929714,5.77794558 315.110858,5.78335696 Z M316.086157,13.867614 C322.928271,24.2577348 330.028315,34.4793217 337.096851,44.7195938 C337.816784,45.7626727 337.747539,46.4346104 337.082562,47.40478 C330.00963,57.7271209 322.876978,68.0113584 315.995662,78.4604661 C314.279913,81.0657819 312.460478,82.2220716 309.415142,81.3783025 C309.16344,80.8148128 309.731327,80.4488009 310.005011,80.0461512 C317.316089,69.2955142 324.625702,58.543778 332.011887,47.8444339 C332.932962,46.5100843 333.026755,45.6329748 332.055486,44.231578 C324.698245,33.6154018 317.447619,22.9259499 310.164019,12.2592135 C309.832081,11.7726632 309.503806,11.2839146 309.167104,10.7867393 C312.581383,9.69969502 314.330839,11.2022122 316.086157,13.867614 Z M251.899289,21.5607879 C242.612333,22.431669 234.265504,29.2818432 232.163592,35.9246472 L276.547752,35.9246472 C273.313365,27.7496493 263.760052,20.4484635 251.899289,21.5607879 Z M405.10673,5.6802325 C403.999535,7.41796455 403.809751,8.99412378 403.234171,10.4131068 C402.986499,11.0238593 402.958288,11.6217886 402.004239,11.6943315 C400.878358,11.7804304 400.864436,10.9696353 400.638014,10.361081 C400.053275,8.78895196 399.548772,7.18677987 398.781576,5.63003868 C398.781576,7.13951708 398.755196,8.64972823 398.791468,10.1584739 C398.814183,11.0791824 398.84386,11.7441589 397.513541,11.703491 C396.307423,11.6664868 396.305591,11.0934712 396.315117,10.2262538 C396.343328,7.67113192 396.305958,5.11527724 396.340031,2.56015531 C396.347725,1.98860524 395.979515,1.00011672 397.12518,1.14666802 C398.063108,1.2664737 399.371445,0.391928818 399.841142,2.09815234 C400.38558,4.07512938 401.06631,6.01473584 401.810425,8.35662563 C402.564065,6.09790371 403.307813,4.24989181 403.784837,2.33519906 C404.290805,0.306562686 405.809077,1.20125838 406.892091,1.17011622 C408.104803,1.13531029 407.511637,2.27291476 407.530688,2.85325791 C407.608727,5.2237252 407.568792,7.59785627 407.559999,9.9708882 C407.556701,10.8293124 407.870687,11.7456245 406.301123,11.7082539 C404.69602,11.6701505 405.143001,10.6754336 405.116988,9.8664704 C405.07742,8.62847829 405.10673,7.38865429 405.10673,5.6802325 M390.82875,1.1125582 C391.862669,1.1125582 392.89842,1.14846327 393.930141,1.1008341 C394.713092,1.06492903 395.154211,1.17813991 395.154578,2.14794314 C395.154944,3.11664724 394.706497,3.32255181 393.934538,3.17600051 C392.119134,2.8308722 391.834824,3.76696863 391.930449,5.29769697 C392.039996,7.05264879 391.897475,8.82262212 391.97588,10.5812377 C392.026806,11.7210405 391.366593,11.6254157 390.596832,11.6730449 C389.701404,11.728368 389.455564,11.3997267 389.481943,10.5387379 C389.539098,8.65701915 389.413064,6.76687376 389.52884,4.89065073 C389.610542,3.56069768 389.263948,2.98218642 387.851926,3.16244452 C387.137122,3.2536727 386.283095,3.47533154 386.296651,2.12009839 C386.310207,0.715770555 387.225786,1.15615721 387.909814,1.12428231 C388.880716,1.07848502 389.855649,1.1125582 390.82875,1.1125582" fill="#95A1AC"></path>
    </g>
</svg>