<?xml version="1.0" encoding="UTF-8"?>
<svg width="500px" height="91px" viewBox="0 0 500 91" version="1.1" xmlns="http://www.w3.org/2000/svg" xmlns:xlink="http://www.w3.org/1999/xlink">
    <title>logos /schlumberger</title>
    <g id="schlumberger" stroke="none" stroke-width="1" fill="none" fill-rule="evenodd">
        <g id="logo-white" transform="translate(53.000000, 1.000000)" fill="#95A1AC">
            <path d="M18.2978531,26.5500001 L18.2978531,13.275 C18.3568642,12.1803088 17.5340651,11.237844 16.4426667,11.15 L16.4426667,11.15 L16.1717936,11.15 C15.6064498,11.1418346 15.0618696,11.3630948 14.6620696,11.7633934 C14.2622697,12.1636919 14.041285,12.7089512 14.0494403,13.275 L14.0494403,13.275 L14.0494403,21.5 C13.9348569,23.5548488 14.8251533,25.5372029 16.4364635,26.8150001 C21.470186,31.6050001 24.9208828,34.7800001 29.9595991,40.3549999 L29.9595991,40.3549999 C32.1646492,42.8035651 33.1399602,46.1239421 32.6112922,49.38 L32.6112922,49.38 L32.6112922,61.3275001 C32.6112922,71.4149999 24.9208828,75.1324999 16.4364635,75.1324999 C16.3790439,75.1324999 16.3216606,75.1323418 16.2643158,75.1320246 L16.1779968,75.1324999 C7.6935775,75.1324999 0.00316802522,71.68 0.00316802522,61.8575001 L0.00316802522,61.8575001 L0.00316802522,46.195 L14.3141102,46.195 L14.3141102,62.6550001 C14.497539,63.69669 15.3808858,64.4698019 16.4364635,64.5125001 L16.4364635,64.5125001 L16.9394696,64.5134433 C17.1486567,64.4888634 17.3465683,64.3966826 17.5013464,64.2475001 C18.0331832,63.9825001 18.0331832,63.7149999 18.2978531,63.1850001 L18.2978531,63.1850001 L18.2978531,51.77 C18.4683479,49.8155574 17.7927603,47.8818596 16.4426667,46.46 C12.9944669,42.4775 5.57122424,37.1675 1.85835448,31.3274999 C0.589526228,29.0597842 -0.0509658931,26.4937575 0.00316802522,23.895 L0.00316802522,23.895 L0.00316802522,13.54 C0.00316802522,3.71750001 7.6935775,0.264999999 15.9133268,0 C15.9917781,0 16.0701614,0.000295181534 16.1484715,0.000887851053 L16.1717936,5.96855898e-13 C24.6562128,5.96855898e-13 32.3466223,3.45250001 32.3466223,13.275 L32.3466223,13.275 L32.3466223,26.5500001 L18.2978531,26.5500001 Z M101.55902,0 L114.020979,0 L114.020979,73.8049999 L101.55902,73.8049999 L101.55902,0 Z M65.229326,35.32 L65.229326,27.3449999 C65.229326,18.595 58.3354232,14.07 50.6450138,14.07 C42.6899344,14.07 36.0607015,18.5825 36.0607015,27.3449999 L36.0607015,61.07 C36.0607015,69.82 42.6899344,74.345 50.6450138,74.345 C58.3354232,74.345 65.229326,69.8324999 65.229326,61.07 L65.229326,50.4425 L52.767367,50.4425 L52.767367,62.3900001 C52.7247222,63.446894 51.9525731,64.3313426 50.9121806,64.515 L50.6475107,64.515 C50.1559562,64.5053451 49.6846986,64.3169622 49.3216641,63.985 C48.8076916,63.6202416 48.5090078,63.0230666 48.5251574,62.3924999 L48.5251574,26.0174999 C48.5251574,24.8438949 49.4753672,23.8925 50.6475107,23.8925 C51.8196539,23.8925 52.7698639,24.8438949 52.7698639,26.0174999 L52.7698639,35.57 L65.2318229,35.57 L65.229326,35.32 Z M89.3592341,14.3375 C85.683778,14.2328094 82.4054518,16.6372373 81.3966641,20.1775 L80.8673242,20.1775 L80.8673242,0 L68.4128559,0 L68.4128559,73.8049999 L80.8748149,73.8049999 L80.8748149,27.0800001 C80.885711,26.2442773 81.4144883,25.5034644 82.2006614,25.2225001 L82.7300013,25.2225001 C83.8685951,25.2998861 84.7750647,26.2074862 84.8523546,27.3475 L84.8523546,74.0725001 L97.3143135,74.0725001 L97.3143135,27.0725 C97.5789835,20.435 97.3143135,14.3225 89.3592341,14.3225 M134.710178,14.8675 L134.710178,61.3275001 C134.632888,62.4675139 133.726419,63.3751141 132.587825,63.4525 L132.058485,63.4525 C131.793815,63.4525 131.793815,63.4525 131.529145,63.1875 C130.742972,62.9065357 130.214195,62.1657228 130.203298,61.33 L130.203298,14.8675 L117.731352,14.8675 L117.731352,63.7175001 C117.731352,69.8225002 120.118375,74.3375001 126.470454,74.3375001 C130.64426,74.2961679 134.096006,71.071172 134.425533,66.905 L134.710178,66.905 L134.710178,73.5425 L147.172137,73.5425 L147.172137,14.8675 L134.710178,14.8675 Z M180.305817,20.4425 C178.717797,15.665 176.597941,14.3375 172.365719,14.3375 C167.327002,14.3375 166.001156,16.4625 163.876306,20.1775 L163.611636,20.1775 L163.611636,14.8675 L151.142186,14.8675 L151.142186,73.5400002 L163.604145,73.5400002 L163.604145,27.0875 C163.604145,25.9138949 164.554355,24.9625 165.726498,24.9625 C166.898641,24.9625 167.848851,25.9138949 167.848851,27.0875 L167.848851,73.5400002 L180.31081,73.5400002 L180.31081,27.3375 C180.31081,26.1638948 181.26102,25.2125001 182.433164,25.2125001 C183.605307,25.2125001 184.555517,26.1638948 184.555517,27.3375 L184.555517,73.8075001 L197.017476,73.8075001 L197.017476,25.2225001 C197.279649,20.71 196.483142,14.3375 188.79523,14.3375 C183.756513,14.3375 182.430667,16.4625 180.305817,20.4425 Z M221.674227,14.3375 C218.066757,14.2531151 214.879633,16.6757365 213.991308,20.1775 L213.726638,20.1775 L213.726638,0 L201.257189,0 L201.257189,73.8049999 L213.719148,73.8049999 L213.719148,67.7000001 L213.991308,67.7000001 C214.609374,71.4862379 217.850398,74.2835267 221.681718,74.3375001 C229.372127,74.3375001 230.420819,67.7000001 230.420819,61.0625001 L230.420819,27.0800001 C230.420819,20.4425 229.359643,14.33 221.681718,14.33 L221.674227,14.3375 Z M217.961357,32.1250001 L217.961357,60.5300001 L217.961357,61.3275001 C217.884067,62.4675139 216.977598,63.3751141 215.839004,63.4525 C215.309664,63.4525 215.042497,63.4525 214.777827,63.1875 C214.131808,62.7891358 213.73211,62.0894983 213.716651,61.33 L213.716651,56.2825001 L213.716651,27.0800001 C213.716651,25.906395 214.666861,24.955 215.839004,24.955 C217.011147,24.955 217.961357,25.906395 217.961357,27.0800001 L217.961357,32.1250001 Z M263.302313,27.6125001 C263.302313,18.8625 256.40841,14.3375 248.718,14.3375 C240.762922,14.3375 234.133689,18.85 234.133689,27.6125001 L234.133689,61.0625001 C234.133689,69.8125001 240.762922,74.3375 248.718,74.3375 C256.40841,74.3375 263.302313,69.825 263.302313,61.0625001 L263.302313,50.4425 L250.840354,50.4425 L250.840354,62.6550001 C250.840354,63.828605 249.890144,64.7800001 248.718,64.7800001 C247.545857,64.7800001 246.595648,63.828605 246.595648,62.6550001 L246.595648,61.5875001 L246.595648,46.195 L263.299816,46.195 L263.302313,27.6125001 Z M250.840354,37.4350001 L246.595648,37.4350001 L246.595648,26.02 C246.587493,25.4539512 246.808477,24.9086919 247.208277,24.5083934 C247.608077,24.1080948 248.152658,23.8868346 248.718,23.895 C249.856595,23.9723861 250.763065,24.8799861 250.840354,26.02 L250.840354,26.8175 L250.840354,37.4350001 Z M288.488404,14.3375 C284.640827,14.2579156 281.15199,16.5893684 279.749302,20.1775 L279.484632,20.1775 L279.484632,14.8675 L267.015182,14.8675 L267.015182,73.5400002 L279.477141,73.5400002 L279.477141,27.0875 C279.488038,26.2517772 280.016816,25.5109646 280.802988,25.23 L281.332328,25.23 C282.470923,25.3073862 283.377392,26.2149861 283.454681,27.3549999 L283.454681,46.7350001 L295.91664,46.7350001 L295.91664,24.6925 C296.18131,18.32 294.590793,14.3375 288.493397,14.3375 M361.145295,27.6125001 C361.145295,18.8625 354.251392,14.3375 346.560983,14.3375 C338.605903,14.3375 331.97667,18.85 331.97667,27.6125001 L331.97667,61.0625001 C331.97667,69.8125001 338.605903,74.3375 346.560983,74.3375 C354.251392,74.3375 361.145295,69.825 361.145295,61.0625001 L361.145295,50.4425 L348.683336,50.4425 L348.683336,57.6125 L348.683336,62.6575 C348.683336,63.8311051 347.733126,64.7824999 346.560983,64.7824999 C345.388839,64.7824999 344.438629,63.8311051 344.438629,62.6575 L344.438629,57.6125 L344.438629,46.4625001 L361.142798,46.4625001 L361.145295,27.6125001 Z M348.683336,31.0624999 L348.683336,37.4350001 L344.438629,37.4350001 L344.438629,31.0624999 L344.438629,26.02 C344.438629,24.8463949 345.388839,23.895 346.560983,23.895 C347.733126,23.895 348.683336,24.8463949 348.683336,26.02 L348.683336,31.0624999 Z M385.799549,14.3375 C381.951972,14.2579156 378.463136,16.5893684 377.060447,20.1775 L376.795777,20.1775 L376.795777,14.8675 L364.326328,14.8675 L364.326328,73.5400002 L376.788287,73.5400002 L376.788287,27.0875 C376.788287,26.3283105 377.192805,25.6267904 377.849463,25.2471958 C378.506122,24.867601 379.315158,24.867601 379.971817,25.2471958 C380.628475,25.6267904 381.032993,26.3283105 381.032993,27.0875 L381.032993,46.7324999 L393.494952,46.7324999 L393.494952,24.6925 C393.759622,18.32 392.166609,14.3375 385.799549,14.3375 M316.078996,14.8675 L316.078996,20.4425 L315.549656,20.4425 C314.111222,16.9554018 310.820004,14.5885838 307.060243,14.3375 C301.492187,14.3375 299.105164,19.1175 299.105164,24.9575 L299.105164,60.2675 C299.105164,65.8425 301.227517,70.0900001 307.060243,70.0900001 C310.713305,69.982215 313.995452,67.8268279 315.549656,64.515 L316.078996,64.515 L316.078996,78.5875 C316.078996,79.7611052 315.128786,80.7125 313.956643,80.7125 C312.784499,80.7125 311.834289,79.7611052 311.834289,78.5875 L311.834289,73.5400002 L299.37233,73.5400002 L299.37233,76.725 C299.37233,86.2825 305.469727,90 313.956643,90 C322.695744,90 328.540955,86.2825 328.540955,76.725 L328.540955,14.8675 L316.078996,14.8675 Z M316.078996,57.8675 C316.078996,59.0411051 315.128786,59.9924999 313.956643,59.9924999 C312.784499,59.9924999 311.834289,59.0411051 311.834289,57.8675 L311.834289,52.8375 L311.834289,27.0875 C311.834289,25.9138949 312.784499,24.9625 313.956643,24.9625 C315.128786,24.9625 316.078996,25.9138949 316.078996,27.0875 L316.078996,52.8375 L316.078996,57.8675 Z" id="Combined-Shape"></path>
        </g>
    </g>
</svg>