<?xml version="1.0" encoding="UTF-8"?>
<svg width="500px" height="91px" viewBox="0 0 500 91" version="1.1" xmlns="http://www.w3.org/2000/svg" xmlns:xlink="http://www.w3.org/1999/xlink">
    <title>logos /yokogawa</title>
    <g id="yokogawa" stroke="none" stroke-width="1" fill="none" fill-rule="evenodd">
        <g transform="translate(0.000060, 9.000000)">
            <path d="M463.960481,73.4367883 C455.384408,57.3374143 443.74922,44.7156596 427.99433,36.1261287 C428.798995,34.6841572 461.383035,1.89585714 463.825683,0 C475.843125,11.9907429 487.843636,23.9643376 500,36.0935688 C484.429182,44.7668873 472.416516,57.0971219 463.960481,73.4367883" id="Fill-1" fill="#57636C"></path>
            <path d="M279.615702,11.2551269 C285.905416,27.145249 292.178632,43.041883 298.455973,58.9367806 C298.929828,60.1369402 299.394133,61.3407899 300.029703,62.971175 C297.193081,62.971175 294.747829,62.9147377 292.307135,62.99744 C291.249371,63.0332559 290.780291,62.6447073 290.412581,61.6902667 C288.935227,57.854705 287.386025,54.0464937 285.842901,50.2363288 C284.885204,47.8724767 285.296111,48.1359952 282.766854,48.1340416 C277.058661,48.1294832 271.350468,48.1362122 265.642276,48.1511898 C263.948507,48.1555311 263.930274,48.1694234 263.422773,49.8158713 L261.968564,54.52869 C261.244009,56.8858947 260.528237,59.2457093 259.843566,61.6145106 C259.511021,62.7658303 259.020017,63.2448956 257.744752,63.1760856 C255.444718,63.0519237 253.133179,63.1409208 250.879596,63.1409208 C250.509498,62.2431346 250.990083,61.5977964 251.20042,60.9400855 C256.515506,44.3208377 261.854035,27.7091872 267.190827,11.0968855 C267.75216,9.3499359 267.758889,9.34624577 269.523638,9.33799725 C271.907895,9.32692687 274.292585,9.30391784 276.676842,9.327361 C279.142715,9.35188949 278.68948,8.91471795 279.615702,11.2551269 Z M329.335348,10.6651841 C330.838532,16.2381445 332.44135,21.7841887 334.018554,27.3369619 C335.891402,33.9303511 337.775103,40.5204842 339.651207,47.1130051 C339.820953,47.7092862 339.942727,48.3229327 340.33692,48.8415041 C340.883927,48.418876 340.872205,47.8069661 341.019593,47.2584395 C344.218934,35.3401967 347.143902,23.3527098 350.088841,11.3699984 C350.192164,10.9495409 350.358437,10.5388515 350.41227,10.1129674 C350.507128,9.36495688 350.963184,9.19976942 351.619375,9.20389368 C353.788519,9.21735179 355.958314,9.23884136 358.126589,9.19521103 C359.224077,9.17328733 359.274002,9.64475536 359.030019,10.5362467 C357.469312,16.2435711 355.947461,21.9615319 354.40998,27.6751512 C351.409689,38.8234598 348.408748,49.9715513 345.404333,61.1187745 C344.890754,63.0243996 344.882288,63.0272215 343.00575,63.0602156 C341.343022,63.0895195 339.680077,63.1146992 338.017132,63.1244672 L337.844301,63.1253831 L337.844301,63.1253831 L337.53318,63.1253403 C336.28014,63.1163519 336.223918,62.9635687 335.798498,61.5220837 C334.491107,57.0932798 333.183934,52.6642589 331.90194,48.2278576 C329.818538,41.0188684 327.764656,33.8011966 325.666059,26.5963317 C325.49436,26.0065625 325.477646,25.3245402 324.693385,24.5161852 C323.99899,26.9108608 323.3619,29.0335522 322.768224,31.1686164 C319.984783,41.1790634 317.237157,51.1994954 314.417249,61.1997402 C313.899112,63.0371682 314.263377,63.0942721 312.553635,63.0989285 L312.196026,63.0996389 C312.131843,63.0998028 312.065304,63.1000281 311.996308,63.1003729 C310.333363,63.1084043 308.670201,63.1060166 307.007256,63.100807 C305.03586,63.0949462 305.03369,63.0921243 304.471705,61.0701517 C302.693715,54.6742929 300.91681,48.2779999 299.140773,41.881707 C296.244892,31.4529733 293.349878,21.0240225 290.455516,10.5948546 C290.361961,10.2577506 290.280561,9.91739064 290.141638,9.3777638 C291.499605,9.051079 292.780513,9.25099707 294.035591,9.21387873 C295.191469,9.17950657 296.349301,9.19911822 297.506047,9.20823501 C299.298146,9.22234432 299.295542,9.22777098 299.750079,11.0292043 C302.362254,21.3845696 304.957282,31.7444933 307.604189,42.091176 C308.148591,44.2199453 308.566878,46.3988569 309.614006,48.7989591 C310.300152,46.4496504 310.876463,44.4532916 311.466233,42.461057 C314.53924,32.0811632 317.321162,21.621606 320.067268,11.1520638 C320.575854,9.21322753 320.57694,9.211491 322.645147,9.20714968 C324.235809,9.20411075 325.830161,9.27096717 327.416265,9.18544305 C328.565197,9.12357915 329.032107,9.54034646 329.335348,10.6651841 Z M380.960923,10.6020612 C383.277889,17.2054354 385.672347,23.7814592 388.035548,30.3685534 C391.787539,40.826374 395.535623,51.2854971 399.284575,61.744403 C399.38117,62.0137823 399.466043,62.2872859 399.704599,63.0038218 C396.841494,63.0038218 394.263832,62.9805957 391.686821,63.0155433 C390.685711,63.0290014 390.569797,62.3102949 390.324295,61.6334821 C388.996501,57.9711394 387.664148,54.310099 386.322244,50.6527488 C385.471778,48.3355659 385.711853,48.6281713 383.437433,48.6225276 C377.581201,48.607333 371.724317,48.6529169 365.869388,48.5658733 C364.536167,48.5461203 363.957251,49.000223 363.564795,50.2192674 C362.348789,53.9953529 360.978667,57.7221643 359.777205,61.5025912 C359.412316,62.6502207 358.950616,63.1546828 357.670793,63.0860899 C355.464749,62.9680058 353.247633,63.0535299 351.111267,63.0535299 C350.785233,62.107772 351.244545,61.544702 351.449456,60.9638326 C357.329131,44.2948766 363.234854,27.6350374 369.134282,10.9730275 C369.916155,8.76502902 369.706252,9.11906417 371.652686,9.10300126 C374.038461,9.0834653 376.428361,9.18027687 378.808494,9.06523173 C380.062486,9.00445316 380.565645,9.47526998 380.960923,10.6020612 Z M375.196293,18.1401229 C372.159752,25.8919949 369.356558,33.5468383 366.792571,41.4497885 L383.327597,41.4497885 C380.551102,33.4904011 377.873806,25.8153705 375.196293,18.1401229 Z M273.569103,17.7056864 L273.151251,17.7432389 L273.151251,17.7432389 C270.810842,25.4456198 268.470433,33.1482177 266.055353,41.0965348 L282.221366,41.0965348 C279.295747,33.1875067 276.432425,25.446488 273.569103,17.7056864 Z M248.565582,25.0852246 C246.105136,25.0852246 243.796853,25.0544012 241.489872,25.1015045 C240.652647,25.1184357 240.19963,24.8844382 239.895303,24.0459111 C237.628914,17.8006963 232.962856,14.8933102 226.493846,14.6135117 C219.479999,14.310053 213.9218,16.8017572 210.484989,23.1769947 C208.990487,25.9495826 208.296526,28.9783088 207.978958,32.0851789 C207.474496,37.0236545 207.680709,41.9069952 209.544657,46.5878131 C212.88292,54.971131 220.952143,59.5269187 230.727507,56.8954239 C233.85196,56.0542919 236.28701,54.2140038 238.134678,51.5753457 C240.001665,48.9091202 241.49964,44.8905717 241.550651,42.2152294 C239.974966,42.2152294 238.398414,42.2152294 236.821861,42.2152294 C233.713688,42.2150123 230.605082,42.1880961 227.497561,42.2297728 C226.497102,42.243231 226.046689,41.9491061 226.094444,40.8776668 C226.158913,39.4356953 226.08663,37.9880801 226.091622,36.5428526 C226.097917,34.7572652 226.106166,34.7329537 227.845518,34.7281783 C232.254786,34.7160226 236.664054,34.7262247 241.073322,34.7303489 C243.169314,34.7323025 245.265523,34.7301319 247.361516,34.7492337 C249.600772,34.7696379 249.491587,34.4108273 249.48768,36.796169 C249.477912,42.9380602 249.464454,49.0801685 249.452515,55.2220597 C249.448174,57.3899009 249.414529,59.5581763 249.455554,61.7251493 C249.4714,62.5599863 249.192904,62.9372475 248.348733,62.8480333 C248.205904,62.8328386 248.060035,62.8480333 247.915252,62.8469479 C246.397958,62.8358776 244.668374,63.2773904 243.419808,62.6923967 C242.008877,62.0314298 242.718901,59.9588807 242.144544,58.604604 C242.067485,58.4231366 242.098526,58.1761151 241.746878,58.1049174 C241.167963,58.2835629 240.771382,58.8255775 240.287542,59.229972 C236.728957,62.2029122 232.604697,63.7084841 228.015481,64.1094056 C224.092658,64.4521533 220.206303,64.4109107 216.445847,63.105908 C209.667951,60.7535605 204.711459,56.2735289 201.892853,49.7196458 C197.961999,40.5792006 197.831108,31.2846384 202.101671,22.2197322 C206.723664,12.4092033 214.68088,7.64850505 225.516396,7.83670154 C230.023344,7.91484541 234.423495,8.67609695 238.524095,10.7095741 C243.93686,13.3940332 247.184389,17.7466468 248.507626,23.5922425 C248.571226,23.8731263 248.598359,24.163561 248.623105,24.4509568 C248.634827,24.585755 248.600747,24.7246774 248.565582,25.0852246 M183.09567,11.4038824 C190.061111,15.3134637 193.850004,21.4579597 195.198419,29.2213363 C195.570688,31.3642149 195.735659,33.5214198 195.674446,35.5894106 C195.733922,38.9667453 195.357312,42.1843192 194.441292,45.3293929 C191.360687,55.9070341 184.100687,61.9247634 173.53086,64.0372527 C166.575839,65.4273454 160.026731,63.8175816 153.982086,60.2453214 C148.696087,57.1215201 145.359778,52.4120495 143.622162,46.5894628 C141.789905,40.4495252 141.576312,34.1739212 142.893253,27.933916 C145.063482,17.6519191 151.667074,11.5046012 161.574414,8.63324806 C169.147423,6.43849061 176.321248,7.6015319 183.09567,11.4038824 Z M109.915802,9.18633302 C111.402706,9.20999325 111.432227,9.23191694 111.434832,10.7930578 C111.446553,17.8752803 111.440041,24.9577198 111.440041,32.0399423 L111.440041,34.333682 L111.440041,34.333682 C112.413367,33.9112709 112.819932,33.3093461 113.303339,32.8255053 C120.709207,25.4096519 128.120936,17.9994422 135.486213,10.5434316 C136.419598,9.59854194 137.338223,9.12881045 138.697275,9.1754797 C141.626151,9.27641554 144.560887,9.20652019 148.030475,9.20652019 C142.250759,15.0062606 136.688136,20.5880529 131.144073,26.1513471 L127.448601,29.8596582 C126.832421,30.4779829 126.215926,31.0966264 125.598843,31.7158623 C133.626389,42.1324403 141.58404,52.4585017 149.838637,63.1696387 L141.641981,63.1696783 C141.067291,63.1699132 140.495492,63.1702504 139.923699,63.170724 C139.2273,63.1711837 138.87841,62.7463677 138.572714,62.2848798 L138.422056,62.052879 C138.347118,61.9371497 138.27171,61.8231764 138.191076,61.717031 C132.772667,54.5827126 127.372708,47.4342849 121.967323,40.2897644 C121.141169,39.1977038 120.311976,38.1078139 119.532056,37.080222 C118.79924,36.9154686 118.53811,37.4459787 118.193625,37.7681051 C116.134534,39.6932662 114.132532,41.6809424 112.03133,43.5579148 C111.188244,44.3111349 110.923641,45.1075511 110.934277,46.2019995 C110.983551,51.2602957 110.96293,56.3192431 110.952076,61.3779734 C110.948386,63.1359934 110.928199,63.1468467 109.176908,63.1609561 C107.441897,63.1750654 105.705584,63.1218841 103.972526,63.1800579 C103.017434,63.2121837 102.650809,62.8490318 102.740892,61.9247634 C102.77584,61.5668211 102.745884,61.2025838 102.745884,60.8413855 L102.745884,11.4101774 L102.745884,11.4101774 C102.745884,11.1933281 102.741326,10.9764789 102.746753,10.7596296 C102.785391,9.20087646 102.785825,9.17786743 104.277504,9.16462639 C106.156647,9.14791228 108.036659,9.15611534 109.915802,9.18633302 Z M169.351466,14.599338 C161.360821,14.5502586 154.848614,18.9651702 152.260967,26.4591675 C149.996748,33.0156553 150.071202,39.6856689 152.376229,46.2061237 C154.894633,53.3300229 161.280506,57.4456001 169.226001,57.415378 C176.590844,57.3869922 182.607705,53.241894 185.273931,46.3567678 C186.568514,43.0135125 187.048882,39.5328542 186.977467,35.9668889 C186.977467,35.1730774 187.001344,34.3783976 186.973126,33.5856715 C186.887819,31.1896936 186.420909,28.8601379 185.635129,26.6002606 C183.056598,19.1863608 176.884969,14.646419 169.351466,14.599338 Z M82.1794161,9.56902092 C91.0025103,12.9430996 96.1730298,19.4123268 97.9983404,28.6285282 C98.4776228,31.0488175 98.5740002,33.4986279 98.6250853,35.5757354 C98.6358641,39.2161545 98.3332737,42.4478377 97.443736,45.5933455 C94.7221586,55.2161121 88.2709479,61.0339233 78.7686532,63.6096321 C70.4048712,65.8766726 62.7380892,63.9751718 55.715777,59.2444286 C50.8426384,55.9617349 47.8597132,51.2320771 46.4411848,45.5759802 C44.8485693,39.2259224 44.8904631,32.814869 46.598775,26.5101781 C49.3891624,16.2132036 56.3626346,10.3248458 66.652663,8.15331445 C71.9649268,7.03238404 77.1606259,7.64972062 82.1794161,9.56902092 Z M9.04580429,9.18674222 C10.0208662,9.16853358 10.4382847,9.72161854 10.8949922,10.4060286 C12.8980801,13.4087069 14.9283013,16.3931515 16.9476691,19.3847594 C19.6132434,23.3336297 22.2725228,27.2864072 24.9487333,31.2281143 C25.3086292,31.7579731 25.5602091,32.3831241 26.1573585,32.7638584 C26.5808746,32.5370439 26.8357051,32.1697605 27.0652195,31.7860233 L27.2590902,31.4559687 C27.3238764,31.3465356 27.3899399,31.2386519 27.4606246,31.1352099 C32.1023706,24.3401662 36.7486749,17.5477272 41.3296423,10.711875 C42.0542096,9.63066775 42.8328265,9.18329409 44.1369609,9.22866095 C46.8541969,9.32308479 49.5772938,9.25709664 52.3811393,9.25709664 C52.0985189,10.2970613 51.5215567,10.8609996 51.0746172,11.4946161 C44.5415725,20.7566185 38.0117837,30.0210085 31.4325039,39.2502339 C30.6343511,40.3698619 30.306798,41.4801561 30.3183026,42.8405106 C30.3701814,49.051646 30.3476065,55.2632155 30.3367532,61.4745679 C30.3337143,63.1401177 30.309837,63.154227 28.7089729,63.1711582 C27.0475474,63.1887405 25.3854707,63.1893917 23.7238281,63.1711582 C22.1346857,63.1535758 22.1114596,63.1388153 22.1084206,61.4613269 C22.0977844,55.2499744 22.0667439,49.0381879 22.1342515,42.8277037 C22.1485779,41.5153208 21.7710996,40.491419 21.0328571,39.4510202 C14.3059722,29.9726028 7.61012772,20.4718275 0.914283293,10.9714863 C0.589335029,10.5102204 0.154985345,10.1012675 0,9.20760552 C3.14724441,9.20760552 6.09739262,9.24363852 9.04580429,9.18674222 Z M55.1581337,26.8618255 C54.1140447,29.8121908 53.6430108,32.8695697 53.7732506,36.0048755 C53.7732506,36.798687 53.7404736,37.5940179 53.7795455,38.3860929 C53.8895982,40.628822 54.3002876,42.8172845 54.9675495,44.9649386 C57.4392835,52.9202017 63.9536605,57.5358997 72.4700401,57.4349639 C79.3189163,57.3537811 86.7421499,53.4843571 89.273143,44.2857381 C90.8206088,38.6617671 90.654336,32.9904757 88.9102082,27.4212054 C86.4734218,19.6408977 80.0441348,14.748006 72.2529738,14.6190686 C64.5230254,14.4909995 57.8525778,19.2482247 55.1581337,26.8618255 Z" id="Combined-Shape" fill="#95A1AC"></path>
        </g>
    </g>
</svg>