<?xml version="1.0" encoding="UTF-8"?>
<svg width="500px" height="91px" viewBox="0 0 500 91" version="1.1" xmlns="http://www.w3.org/2000/svg" xmlns:xlink="http://www.w3.org/1999/xlink">
    <title>logos /NOV</title>
    <g id="NOV" stroke="none" stroke-width="1" fill="none" fill-rule="evenodd">
        <g id="nov-white-logo" transform="translate(136.000000, 1.000000)" fill="#95A1AC">
            <path d="M114.180044,0 C139.032157,0 159.180027,20.1478693 159.180027,44.9999827 C159.180027,69.8520962 139.032157,89.9999828 114.180044,89.9999828 C100.809249,90.0116883 88.1289032,84.0635999 79.5900134,73.7744958 C85.7129979,74.5343784 94.4582361,73.8184197 106.89747,70.0409687 C125.218107,64.4758171 140.745188,51.0482967 149.753969,39.1097947 C149.617805,38.2049634 149.459679,37.3089169 149.262022,36.4172627 C138.917955,46.9062778 122.894536,57.9135942 106.835977,61.906272 C80.7583877,68.389432 73.04536,60.685189 70.9809391,57.2064202 L70.9809391,57.2064202 L70.7349655,56.7276503 C69.7291094,52.9853384 69.1800613,49.0585463 69.1800613,44.9999827 C69.1800613,20.1478693 89.3279306,0 114.180044,0 Z M30.0351276,4.39238484 L47.5212116,34.4933982 L47.5212116,4.39238484 L81.1009938,4.39238484 C69.6939703,13.8535818 62.3718648,28.4231223 62.3718648,44.7847559 C62.3718648,61.1463894 69.6895779,75.7159299 81.0966014,85.1771269 L81.0966014,85.1771269 L47.2620609,85.1771269 L29.7803692,55.0761136 L29.7803692,85.1771269 L0,85.1771269 L0,4.39238484 L30.0351276,4.39238484 Z M180.812522,4.39238484 L180.812522,34.4933982 L198.298606,4.39238484 L228.404012,4.39238484 L180.948686,85.1771269 L147.23274,85.1771269 C158.639763,75.7159299 165.957477,61.1463894 165.957477,44.7847559 C165.957477,28.4231223 158.639763,13.8535818 147.23274,4.39238484 L180.812522,4.39238484 Z" id="Combined-Shape"></path>
        </g>
    </g>
</svg>