<?xml version="1.0" encoding="UTF-8"?>
<svg width="500px" height="91px" viewBox="0 0 500 91" version="1.1" xmlns="http://www.w3.org/2000/svg" xmlns:xlink="http://www.w3.org/1999/xlink">
    <title>logos /toshiba</title>
    <g id="toshiba" stroke="none" stroke-width="1" fill="none" fill-rule="evenodd">
        <path d="M93.5468888,45.191833 C93.8550919,49.1930045 93.96017,53.4965198 94.5718887,57.7265976 C95.2961074,62.738316 97.9640759,65.2187845 102.99806,65.6375345 C106.406263,65.9207376 109.878137,65.857847 113.289856,65.5715189 C117.176965,65.245347 119.827746,62.9851909 120.682434,59.1410506 C121.270715,56.4973008 121.66759,53.7480823 121.659891,51.0473012 C121.642199,44.8840205 121.616808,38.6937866 121.035949,32.5672246 C120.553918,27.4785531 117.900793,25.0891001 112.801965,24.4879283 C109.726575,24.1254283 106.552747,24.0457409 103.477357,24.363319 C97.6757947,24.962147 95.2949355,27.2633187 94.4656387,33.0476933 C93.9050919,36.9574586 93.8496231,40.9398802 93.5468888,45.191833 M101.562513,7.00003906 L114.062512,7.00003906 C117.279309,7.41566403 120.521496,7.69339838 123.708605,8.27269521 C134.191026,10.1789451 139.750401,15.3902728 141.385557,25.796522 C143.355088,38.3289429 143.072666,50.9762075 141.57501,63.5457378 C140.800401,70.0441748 138.12462,75.8097993 131.93712,78.9543303 C129.145714,80.3730802 126.005871,81.264877 122.922277,81.9082363 C119.508996,82.6203457 115.978918,82.7746425 112.500012,83.1719081 L103.125013,83.1719081 C102.425794,83.0582362 101.730091,82.9121425 101.026576,82.8363613 C98.1828259,82.5297207 95.3066543,82.4176113 92.4972795,81.9222988 C81.3105616,79.9496427 75.7359527,74.8301119 74.1121247,63.734019 C72.2968904,51.3312856 72.2964998,38.7680053 74.1101715,26.3644907 C75.7265777,15.3113665 81.3324366,10.1289451 92.2992326,8.21332022 C95.3640761,7.67777338 98.4734509,7.39730466 101.562513,7.00003906 M192.57817,7 C195.668404,7.3753906 198.776216,7.6445312 201.846138,8.14531241 C211.355903,9.69804666 215.955903,14.7078119 216.698871,24.3210924 C216.868012,26.5121079 216.723871,28.7273421 216.723871,31.0996075 L197.44106,31.0996075 C197.388717,30.610545 197.326607,30.1140607 197.283638,29.6156232 C196.951217,25.7605454 195.512545,23.7230456 191.650436,23.2871081 C187.884811,22.8617175 183.989108,22.9203113 180.222312,23.3687487 C176.669578,23.7914049 175.248093,25.9843735 175.288718,29.4945295 C175.33364,33.3941386 176.735984,35.4707009 180.358249,35.9578102 C184.861374,36.5632789 189.42778,36.6820289 193.955904,37.121482 C197.25317,37.4417945 200.565669,37.7710913 203.814888,38.3937475 C212.411372,40.0406224 217.341059,44.9898408 218.330121,53.659762 C218.839887,58.1289023 218.74184,62.7816363 218.122309,67.2410109 C216.970746,75.5300728 211.265278,79.7546818 203.557466,81.5093692 C200.406685,82.2265566 197.125435,82.3726504 193.902389,82.7679628 C192.681686,82.9179628 191.457076,83.0382753 190.23442,83.171869 L182.421921,83.171869 C181.528952,83.0476503 180.637937,82.9078066 179.743015,82.8015566 C176.196921,82.3796816 172.623094,82.1214785 169.109422,81.5148379 C164.631688,80.7421817 160.587157,78.9324163 157.970751,74.9984322 C154.491454,69.7671826 154.918407,63.7960893 154.791845,57.7769492 L164.625829,57.7769492 L174.400047,57.7769492 C174.4645,58.5956991 174.517625,59.1683553 174.552781,59.7421834 C174.802781,63.8374956 176.413718,66.109761 180.434421,66.5062454 C184.537546,66.9109328 188.755124,66.8687453 192.852389,66.4042922 C196.664889,65.972261 198.173873,63.5972612 198.111373,59.673824 C198.053951,56.0937462 196.419967,54.0718713 192.668014,53.4546839 C189.919186,53.0023402 187.104733,52.9644495 184.329343,52.6519496 C178.913718,52.0417934 173.4145,51.7812465 168.114891,50.621481 C160.881298,49.038278 156.393017,44.3109346 155.521923,36.7765602 C155.11372,33.2437479 154.941064,29.6230451 155.209814,26.0839829 C155.987548,15.8515618 161.641844,9.83671853 171.791845,8.13984366 C174.793796,7.63789058 177.835593,7.37343747 180.859421,7 L192.57817,7 Z M469.835609,51.8251137 C467.38561,43.3715987 464.977797,35.0641775 462.569985,26.7567563 C462.423891,26.7821469 462.278188,26.8079281 462.132094,26.8337094 C459.739907,35.1071462 457.34772,43.3805831 454.905923,51.8251137 L469.835609,51.8251137 Z M500.00006,81.6094864 C493.234436,81.6344864 486.468811,81.6934707 479.703968,81.622377 C479.144593,81.6165176 478.282874,80.8325333 478.090687,80.2387833 C476.970374,76.7805805 475.976234,73.2797995 475.011,69.7739404 C474.696156,68.6309717 474.241078,68.059878 472.909437,68.0727687 C465.883266,68.1395655 458.855923,68.1372218 451.829751,68.0739405 C450.509439,68.0618312 450.037564,68.6024561 449.723502,69.7696435 C448.779752,73.2809714 447.771158,76.7766742 446.696939,80.2505021 C446.527408,80.7993302 445.892252,81.6075332 445.463736,81.613002 C438.70944,81.6989395 431.95319,81.6735489 424.917644,81.6735489 C425.403582,79.9696427 425.801238,78.4942522 426.244597,77.0329242 C432.994597,54.7840978 439.766471,32.5423027 446.467642,10.2786326 C446.904361,8.82824204 447.51608,8.35480458 449.011002,8.36574208 C457.924282,8.43136708 466.838344,8.43527333 475.751234,8.36319041 C477.284828,8.35089833 477.852796,8.90089829 478.279749,10.3184763 C485.209436,33.3251151 492.197326,56.3141758 499.184826,79.3032365 C499.385607,79.9633927 499.72506,80.5813614 500.00006,81.2188614 L500.00006,81.6094864 Z M6.01430802e-05,8.56249988 C0.712560087,8.52460926 1.42545066,8.45390614 2.1379506,8.45390614 C22.5672459,8.44765614 42.9969318,8.44874085 63.4262271,8.44874085 L65.81568,8.44874085 L65.81568,26.4523422 L44.0613848,26.4523422 C44.0004473,27.4980453 43.9117755,28.3109358 43.9113848,29.1238264 C43.9031817,45.7796845 43.9059161,62.4355425 43.9043536,79.0914006 C43.903963,81.7179629 43.8988848,81.7210879 41.2465413,81.7222598 C35.5211511,81.7246035 29.7949797,81.6695254 24.0707614,81.7566348 C22.453574,81.7812442 21.9816991,81.3015567 21.9871678,79.6726506 C22.0430272,62.887105 22.0215428,46.1007782 22.0215428,29.314842 C22.0215428,28.4855452 22.0215428,27.6562484 22.0215428,26.5312485 L6.01430802e-05,26.5312485 L6.01430802e-05,8.56249988 Z M376.667765,37.0512477 C382.018546,37.0512477 387.262296,37.1867945 392.493936,36.9910914 C394.920498,36.9004664 396.461904,35.1227322 396.970498,32.7688261 C397.964638,28.1676546 395.754092,25.2043736 391.072842,25.047733 C387.829483,24.9391392 384.579874,25.0199986 381.33339,25.0176548 C379.800577,25.0160923 378.267765,25.0172642 376.667765,25.0172642 L376.667765,37.0512477 Z M376.629484,64.9012455 C382.10839,64.9012455 387.365421,65.0692142 392.604873,64.8430424 C396.180654,64.6887455 398.054873,62.1793707 398.093935,58.3129647 C398.137295,53.9879651 396.686123,51.8821059 392.719326,51.6770278 C387.475186,51.4063247 382.206046,51.6203871 376.947453,51.6391371 C376.853312,51.6395278 376.759562,51.8039809 376.629484,51.9254652 L376.629484,64.9012455 Z M356.042376,81.5703848 L356.042376,8.61960925 C356.549798,8.5391405 356.98222,8.41023426 357.41386,8.41139821 C371.075187,8.45632801 384.736905,8.47312488 398.397451,8.61023425 C400.650185,8.6328905 402.938857,9.01726547 405.140419,9.53484355 C413.248622,11.4410934 417.318934,16.5328899 417.865809,25.3078892 C417.962684,26.8617953 417.952527,28.4344515 417.838856,29.9871857 C417.365809,36.4469508 414.088075,40.761013 407.885731,42.7856222 C407.469716,42.9215597 407.068153,43.1020284 406.286903,43.4074972 C407.2412,43.7457784 407.859169,43.9676534 408.479481,44.183669 C414.325184,46.2196063 418.199793,50.1465591 418.847059,56.3762461 C419.257996,60.3301521 419.293152,64.4883549 418.528699,68.3641358 C417.088465,75.6645259 411.753309,79.3684318 404.790419,80.7106192 C401.367373,81.3703848 397.82206,81.6137442 394.328311,81.6453848 C382.228312,81.7543692 370.126359,81.6891348 358.025579,81.6828848 C357.39511,81.6824942 356.765032,81.6129629 356.042376,81.5703848 L356.042376,81.5703848 Z M253.345978,35.0698416 L277.651835,35.0698416 L277.651835,32.6671074 C277.652226,25.3139829 277.71707,17.9600773 277.607304,10.6085153 C277.57957,8.74406236 278.214726,8.32296865 279.93621,8.35148427 C285.400663,8.44171864 290.868241,8.42218739 296.333474,8.36007802 C297.732303,8.34406239 298.276834,8.70812487 298.27411,10.2124216 C298.233865,33.5081229 298.246756,56.8042149 298.239334,80.0999162 C298.239334,80.5440568 298.143631,80.9878067 298.079177,81.5506973 L277.737773,81.5506973 L277.737773,53.5815589 L253.40965,53.5815589 L253.40965,81.5495254 L232.904183,81.5495254 L232.904183,8.5491405 L253.345978,8.5491405 L253.345978,35.0698416 Z M337.282065,81.5706582 L316.670739,81.5706582 C316.635582,80.8366739 316.578551,80.2019083 316.578551,79.5671428 C316.573864,56.5976133 316.594176,33.6284745 316.536726,10.6593357 C316.532457,8.87300767 317.010192,8.31050771 318.820738,8.34527333 C324.414488,8.45386707 330.012144,8.41597645 335.607456,8.36441396 C336.944565,8.35191396 337.399643,8.77457017 337.397696,10.1491794 C337.362143,33.5089432 337.371909,56.868707 337.368003,80.2280802 C337.368003,80.6077677 337.320737,80.9870645 337.282065,81.5706582" fill="#95A1AC"></path>
    </g>
</svg>